<svg viewBox="0 0 1112.2000732421875 400" xmlns="http://www.w3.org/2000/svg"><g><g><g><g><g><line x1="40" y1="378" x2="35" y2="378" style="visibility: inherit;" fill="rgb(0, 0, 0)" stroke="rgb(204, 204, 204)" stroke-width="1px"></line><line x1="40" y1="343.6363636363636" x2="35" y2="343.6363636363636" style="visibility: inherit;" fill="rgb(0, 0, 0)" stroke="rgb(204, 204, 204)" stroke-width="1px"></line><line x1="40" y1="309.27272727272725" x2="35" y2="309.27272727272725" style="visibility: inherit;" fill="rgb(0, 0, 0)" stroke="rgb(204, 204, 204)" stroke-width="1px"></line><line x1="40" y1="274.90909090909093" x2="35" y2="274.90909090909093" style="visibility: inherit;" fill="rgb(0, 0, 0)" stroke="rgb(204, 204, 204)" stroke-width="1px"></line><line x1="40" y1="240.54545454545453" x2="35" y2="240.54545454545453" style="visibility: inherit;" fill="rgb(0, 0, 0)" stroke="rgb(204, 204, 204)" stroke-width="1px"></line><line x1="40" y1="206.1818181818182" x2="35" y2="206.1818181818182" style="visibility: inherit;" fill="rgb(0, 0, 0)" stroke="rgb(204, 204, 204)" stroke-width="1px"></line><line x1="40" y1="171.81818181818184" x2="35" y2="171.81818181818184" style="visibility: inherit;" fill="rgb(0, 0, 0)" stroke="rgb(204, 204, 204)" stroke-width="1px"></line><line x1="40" y1="137.45454545454547" x2="35" y2="137.45454545454547" style="visibility: inherit;" fill="rgb(0, 0, 0)" stroke="rgb(204, 204, 204)" stroke-width="1px"></line><line x1="40" y1="103.09090909090907" x2="35" y2="103.09090909090907" style="visibility: inherit;" fill="rgb(0, 0, 0)" stroke="rgb(204, 204, 204)" stroke-width="1px"></line><line x1="40" y1="68.72727272727269" x2="35" y2="68.72727272727269" style="visibility: inherit;" fill="rgb(0, 0, 0)" stroke="rgb(204, 204, 204)" stroke-width="1px"></line><line x1="40" y1="34.363636363636374" x2="35" y2="34.363636363636374" style="visibility: inherit;" fill="rgb(0, 0, 0)" stroke="rgb(204, 204, 204)" stroke-width="1px"></line><line x1="40" y1="0" x2="35" y2="0" style="visibility: inherit;" fill="rgb(0, 0, 0)" stroke="rgb(204, 204, 204)" stroke-width="1px"></line></g><g transform="translate(30, 0)"><text x="0" y="378" dx="0em" dy="0.3em" style="text-anchor: end; visibility: hidden; font-family: &quot;Helvetica Neue&quot;, sans-serif; font-size: 12px; font-weight: 200;" fill="rgb(50, 49, 63)" stroke="none" stroke-width="1px">0</text><text x="0" y="343.6363636363636" dx="0em" dy="0.3em" style="text-anchor: end; visibility: inherit; font-family: &quot;Helvetica Neue&quot;, sans-serif; font-size: 12px; font-weight: 200;" fill="rgb(50, 49, 63)" stroke="none" stroke-width="1px">20</text><text x="0" y="309.27272727272725" dx="0em" dy="0.3em" style="text-anchor: end; visibility: inherit; font-family: &quot;Helvetica Neue&quot;, sans-serif; font-size: 12px; font-weight: 200;" fill="rgb(50, 49, 63)" stroke="none" stroke-width="1px">40</text><text x="0" y="274.90909090909093" dx="0em" dy="0.3em" style="text-anchor: end; visibility: inherit; font-family: &quot;Helvetica Neue&quot;, sans-serif; font-size: 12px; font-weight: 200;" fill="rgb(50, 49, 63)" stroke="none" stroke-width="1px">60</text><text x="0" y="240.54545454545453" dx="0em" dy="0.3em" style="text-anchor: end; visibility: inherit; font-family: &quot;Helvetica Neue&quot;, sans-serif; font-size: 12px; font-weight: 200;" fill="rgb(50, 49, 63)" stroke="none" stroke-width="1px">80</text><text x="0" y="206.1818181818182" dx="0em" dy="0.3em" style="text-anchor: end; visibility: inherit; font-family: &quot;Helvetica Neue&quot;, sans-serif; font-size: 12px; font-weight: 200;" fill="rgb(50, 49, 63)" stroke="none" stroke-width="1px">100</text><text x="0" y="171.81818181818184" dx="0em" dy="0.3em" style="text-anchor: end; visibility: inherit; font-family: &quot;Helvetica Neue&quot;, sans-serif; font-size: 12px; font-weight: 200;" fill="rgb(50, 49, 63)" stroke="none" stroke-width="1px">120</text><text x="0" y="137.45454545454547" dx="0em" dy="0.3em" style="text-anchor: end; visibility: inherit; font-family: &quot;Helvetica Neue&quot;, sans-serif; font-size: 12px; font-weight: 200;" fill="rgb(50, 49, 63)" stroke="none" stroke-width="1px">140</text><text x="0" y="103.09090909090907" dx="0em" dy="0.3em" style="text-anchor: end; visibility: inherit; font-family: &quot;Helvetica Neue&quot;, sans-serif; font-size: 12px; font-weight: 200;" fill="rgb(50, 49, 63)" stroke="none" stroke-width="1px">160</text><text x="0" y="68.72727272727269" dx="0em" dy="0.3em" style="text-anchor: end; visibility: inherit; font-family: &quot;Helvetica Neue&quot;, sans-serif; font-size: 12px; font-weight: 200;" fill="rgb(50, 49, 63)" stroke="none" stroke-width="1px">180</text><text x="0" y="34.363636363636374" dx="0em" dy="0.3em" style="text-anchor: end; visibility: inherit; font-family: &quot;Helvetica Neue&quot;, sans-serif; font-size: 12px; font-weight: 200;" fill="rgb(50, 49, 63)" stroke="none" stroke-width="1px">200</text><text x="0" y="0" dx="0em" dy="0.3em" style="text-anchor: end; visibility: hidden; font-family: &quot;Helvetica Neue&quot;, sans-serif; font-size: 12px; font-weight: 200;" fill="rgb(50, 49, 63)" stroke="none" stroke-width="1px">220</text></g><line x1="40" y1="0" x2="40" y2="378" fill="rgb(0, 0, 0)" stroke="rgb(204, 204, 204)" stroke-width="1px"></line></g></g><g transform="translate(40, 0)" clip-path="url(#clip_0)"><clipPath id="clip_0"><rect width="1072" height="378"></rect></clipPath><g><g><g><line x1="0" y1="0" x2="0" y2="378" fill="rgb(0, 0, 0)" stroke="rgb(60, 60, 60)" stroke-width="1px" opacity="0.25"></line><line x1="71.48" y1="0" x2="71.48" y2="378" fill="rgb(0, 0, 0)" stroke="rgb(60, 60, 60)" stroke-width="1px" opacity="0.25"></line><line x1="142.96" y1="0" x2="142.96" y2="378" fill="rgb(0, 0, 0)" stroke="rgb(60, 60, 60)" stroke-width="1px" opacity="0.25"></line><line x1="214.44000000000003" y1="0" x2="214.44000000000003" y2="378" fill="rgb(0, 0, 0)" stroke="rgb(60, 60, 60)" stroke-width="1px" opacity="0.25"></line><line x1="285.92" y1="0" x2="285.92" y2="378" fill="rgb(0, 0, 0)" stroke="rgb(60, 60, 60)" stroke-width="1px" opacity="0.25"></line><line x1="357.4" y1="0" x2="357.4" y2="378" fill="rgb(0, 0, 0)" stroke="rgb(60, 60, 60)" stroke-width="1px" opacity="0.25"></line><line x1="428.88000000000005" y1="0" x2="428.88000000000005" y2="378" fill="rgb(0, 0, 0)" stroke="rgb(60, 60, 60)" stroke-width="1px" opacity="0.25"></line><line x1="500.36" y1="0" x2="500.36" y2="378" fill="rgb(0, 0, 0)" stroke="rgb(60, 60, 60)" stroke-width="1px" opacity="0.25"></line><line x1="571.84" y1="0" x2="571.84" y2="378" fill="rgb(0, 0, 0)" stroke="rgb(60, 60, 60)" stroke-width="1px" opacity="0.25"></line><line x1="643.32" y1="0" x2="643.32" y2="378" fill="rgb(0, 0, 0)" stroke="rgb(60, 60, 60)" stroke-width="1px" opacity="0.25"></line><line x1="714.8" y1="0" x2="714.8" y2="378" fill="rgb(0, 0, 0)" stroke="rgb(60, 60, 60)" stroke-width="1px" opacity="0.25"></line><line x1="786.28" y1="0" x2="786.28" y2="378" fill="rgb(0, 0, 0)" stroke="rgb(60, 60, 60)" stroke-width="1px" opacity="0.25"></line><line x1="857.7600000000001" y1="0" x2="857.7600000000001" y2="378" fill="rgb(0, 0, 0)" stroke="rgb(60, 60, 60)" stroke-width="1px" opacity="0.25"></line><line x1="929.2400000000001" y1="0" x2="929.2400000000001" y2="378" fill="rgb(0, 0, 0)" stroke="rgb(60, 60, 60)" stroke-width="1px" opacity="0.25"></line><line x1="1000.72" y1="0" x2="1000.72" y2="378" fill="rgb(0, 0, 0)" stroke="rgb(60, 60, 60)" stroke-width="1px" opacity="0.25"></line><line x1="1072.2" y1="0" x2="1072.2" y2="378" fill="rgb(0, 0, 0)" stroke="rgb(60, 60, 60)" stroke-width="1px" opacity="0.25"></line></g><g><line x1="0" y1="378" x2="1072.2" y2="378" fill="rgb(0, 0, 0)" stroke="rgb(60, 60, 60)" stroke-width="1px" opacity="0.25"></line><line x1="0" y1="343.6363636363636" x2="1072.2" y2="343.6363636363636" fill="rgb(0, 0, 0)" stroke="rgb(60, 60, 60)" stroke-width="1px" opacity="0.25"></line><line x1="0" y1="309.27272727272725" x2="1072.2" y2="309.27272727272725" fill="rgb(0, 0, 0)" stroke="rgb(60, 60, 60)" stroke-width="1px" opacity="0.25"></line><line x1="0" y1="274.90909090909093" x2="1072.2" y2="274.90909090909093" fill="rgb(0, 0, 0)" stroke="rgb(60, 60, 60)" stroke-width="1px" opacity="0.25"></line><line x1="0" y1="240.54545454545453" x2="1072.2" y2="240.54545454545453" fill="rgb(0, 0, 0)" stroke="rgb(60, 60, 60)" stroke-width="1px" opacity="0.25"></line><line x1="0" y1="206.1818181818182" x2="1072.2" y2="206.1818181818182" fill="rgb(0, 0, 0)" stroke="rgb(60, 60, 60)" stroke-width="1px" opacity="0.25"></line><line x1="0" y1="171.81818181818184" x2="1072.2" y2="171.81818181818184" fill="rgb(0, 0, 0)" stroke="rgb(60, 60, 60)" stroke-width="1px" opacity="0.25"></line><line x1="0" y1="137.45454545454547" x2="1072.2" y2="137.45454545454547" fill="rgb(0, 0, 0)" stroke="rgb(60, 60, 60)" stroke-width="1px" opacity="0.25"></line><line x1="0" y1="103.09090909090907" x2="1072.2" y2="103.09090909090907" fill="rgb(0, 0, 0)" stroke="rgb(60, 60, 60)" stroke-width="1px" opacity="0.25"></line><line x1="0" y1="68.72727272727269" x2="1072.2" y2="68.72727272727269" fill="rgb(0, 0, 0)" stroke="rgb(60, 60, 60)" stroke-width="1px" opacity="0.25"></line><line x1="0" y1="34.363636363636374" x2="1072.2" y2="34.363636363636374" fill="rgb(0, 0, 0)" stroke="rgb(60, 60, 60)" stroke-width="1px" opacity="0.25"></line><line x1="0" y1="0" x2="1072.2" y2="0" fill="rgb(0, 0, 0)" stroke="rgb(60, 60, 60)" stroke-width="1px" opacity="0.25"></line></g></g></g><g><g><line x1="0" y1="378" x2="1072.2" y2="378" fill="rgb(0, 0, 0)" stroke="rgb(153, 153, 153)" stroke-width="1.5px"></line></g></g><g><g><line x1="71.48" y1="0" x2="71.48" y2="378" fill="rgb(0, 0, 0)" stroke="rgb(153, 153, 153)" stroke-width="1.5px"></line></g></g><g><g><g><g><g><path stroke="rgb(0, 119, 187)" stroke-width="2px" d="M71.48,340.2L71.8374,324.0920454545454L72.5522,335.8168831168831L72.90960000000001,344.1480280748663L73.9818,351.37831682543685L74.3392,335.15364832535886L75.4114,342.17978494417696L75.76880000000001,346.26743691392346L76.84100000000001,348.67564038171776L80.05760000000001,341.80749152289786L80.415,338.40305280119213L80.7724,342.56725988951223L81.1298,336.8019169047361L81.8446,340.9134630306856L83.2742,340.62794357144884L83.6316,344.5815178532633L84.7038,345.5781703210179L86.8482,345.48871128897355L87.9204,346.1223562942506L88.6352,349.9390078648334L90.0648,338.4831534123864L90.4222,337.7953375397367L91.4944,328.44803779629996L92.2092,329.0251890489063L92.924,331.4333020938604L93.6388,338.37635673626244L96.1406,345.291275664565L97.5702,341.19294470015944L97.92760000000001,344.23213157626753L98.285,335.0592769178816L98.64240000000001,341.92647615253327L100.4294,346.7340678923217L101.14420000000001,347.5568044110439L101.85900000000001,337.7413550926749L102.9312,335.28844937707413L104.3608,340.0021605839546L105.07560000000001,342.8303872769666L105.43299999999999,346.589141471046L106.1478,350.218939436169L106.5052,340.7131818308128L109.007,348.7551818322105L109.3644,346.7076545528864L110.4366,350.29004727822075L110.794,351.7522101853676L111.15140000000001,344.3822352013636L112.581,346.83297748460734L115.4402,350.3652410363511L115.7976,338.73914462154966L116.15500000000002,346.19621404575753L116.8698,343.7977284274351L117.22720000000001,349.2313643292147L117.5846,352.49154587026555L119.0142,351.0112911585204L119.37160000000002,354.2467746951156L119.729,352.7517011807048L120.08640000000001,327.80011161750434L121.516,339.6327942432326L122.5882,341.92149472775804L122.9456,346.0438059275642L123.30300000000001,342.3317381019929L123.6604,336.6681337702865L124.01780000000001,323.6481529894444L124.3752,332.3307099754849L125.8048,330.66751689438183L126.16220000000001,342.7277828639019L126.5196,343.7784879001593L126.87700000000001,345.78345637645924L131.88060000000002,349.7355283713301L132.238,342.4849533864344L134.7398,347.7564265773152L135.09720000000002,351.6065832191164L136.1694,335.3603135678335L136.5268,340.7325517770637L137.2416,342.5813492480564L137.599,346.4397186397429L139.0286,352.1911039111185L141.53040000000001,337.7728441648529L142.24519999999998,340.1182519534572L145.1044,347.7109511720743L146.8914,345.39384343051734L147.24880000000002,322.0108515128558L147.6062,323.101056362259L148.6784,332.00245199917356L149.3932,338.03056210859506L149.7506,343.7092463560661L150.10800000000003,350.5528205409124L150.8228,356.03351050636564L151.895,351.76192448563756L152.2524,351.9480637822916L152.6098,353.4342928148295L153.68200000000002,344.70421205253405L154.0394,347.0261635951568L155.469,329.8629708843668L159.043,336.746873439711L159.40040000000002,336.0663058820084L161.5448,339.7816017110232L161.9022,335.82532466297755L162.61700000000002,337.57519479778654L164.7614,336.56329869685374L165.4762,345.57797921811226L165.83360000000002,350.2995148035946L166.191,351.7578907003386L167.6206,351.2583707838395L168.33540000000002,352.33320428848555L168.6928,353.66537711854585L170.12240000000003,346.21740808930934L170.8372,340.37408121722194L171.9094,338.92990327578775L172.26680000000002,324.31794196547264L172.6242,316.92531063382904L173.6964,323.4860954712065L174.41119999999998,332.9207481918148L174.76860000000002,333.083358005998L175.126,342.80274207632607L176.913,345.885281609432L177.2704,343.6111689656592L178.3426,328.50124683394097L179.4148,335.2425662821828L181.5592,335.8509943147642L182.27400000000003,343.7760511343131L183.3462,346.4692670442242L185.4906,350.8342874992618L186.2054,352.76602704501164L187.2776,348.4268889542797L188.34980000000002,350.63431519074965L188.7072,347.8351345689952L189.0646,350.9665352868517L189.422,346.659921172111L189.7794,347.5123163396302L191.20900000000003,350.08557162195996L191.56640000000002,345.4440702459033L192.2812,348.84462396572377L192.996,343.3249561976161L195.49779999999998,340.7004282640242L195.85520000000002,337.0638933220509L196.57,340.3801541750487L196.9274,329.31172886866557L197.6422,338.47794641210845L197.99960000000002,346.03949511999235L199.4292,307.9655152538136L199.7866,326.35749097046994L200.144,310.58904003682744L201.931,329.99342402209646L202.6458,336.8251453223488L203.0032,345.7350871934093L203.71800000000002,350.3937795887728L204.0754,342.1926313896273L204.43280000000001,336.58466974286733L205.50500000000002,322.91080184572036L205.8624,336.0119356528868L206.57720000000003,331.5017068462775L206.93460000000002,336.355569562312L207.292,346.1406144646599L208.00680000000003,316.27345958788686L208.7216,329.28043938909576L209.7938,330.21189999709384L210.15120000000002,319.0871399982563L211.22340000000003,328.21955672622653L213.0104,334.38627949028137L213.36780000000002,318.1554040578052L214.0826,329.0350606165013L214.44000000000003,342.4355818244462L214.7974,329.85771273103137L215.51220000000004,323.68553672952794L216.58440000000002,327.5422311286259L218.014,332.6053386771755L219.08620000000002,333.58138502448713L219.4436,341.7270128328741L220.15840000000003,343.86529860881535L220.5158,349.2719064380165L221.9454,340.1449620446281L222.6602,343.6033408631405L224.80460000000002,338.11836815424795L225.51940000000002,346.51102089254874L226.23420000000002,304.8120670809838L227.66380000000004,292.85087661222667L229.0934,318.6632532400633L230.1656,311.47067921676523L230.8804,329.8351348027864L231.23780000000002,317.4865354271264L232.31000000000003,327.94646671082126L232.66740000000001,337.65878911740185L233.0248,344.1734552886229L233.7396,343.2713459004465L234.45440000000002,350.9773529948134L235.1692,323.2991390696153L238.0284,335.55766525995097L239.10060000000001,338.789144610516L239.8154,335.22985040267326L240.5302,327.5960920597858L241.60240000000002,334.01220069041693L242.6746,313.12004768697744L243.032,314.3302104303683L243.7468,323.99085353094824L244.46160000000003,322.91451211856895L245.8912,331.89052545295954L246.2486,327.6543152717757L246.60600000000002,337.4834982539745L248.7504,337.882826225112L249.10780000000003,327.81333209870354L249.4652,336.8916356228585L249.82260000000002,344.40043591916964L252.32440000000003,345.4693524605927L253.3966,329.61615693090107L253.75400000000002,337.973330522177L254.8262,340.23854376785164L255.54100000000003,326.47767171525646L256.2558,322.3447848473357L256.9706,323.9886890902196L257.328,333.2223043632227L257.6854,332.57701898156995L258.7576,336.3134841162147L259.115,336.4935450151834L259.4724,343.47430882729185L260.1872,324.2954943872842L261.6168,334.78093299600687L262.689,315.64310525214955L264.1186,330.96404496947156L264.8334,329.8475178907738L265.5482,333.30123800719156L266.263,319.5661973497695L266.6204,329.19426386440716L269.1222,331.5347401368261L269.4796,335.6881168093684L273.0536,318.2492337219847L273.76840000000004,313.971358415009L274.12579999999997,327.899178685369L275.91280000000006,331.444961756676L276.62760000000003,327.38697705400557L278.0572,335.26127714149425L278.77200000000005,343.4222208303511L279.12940000000003,343.50787795275613L280.2016,335.99927222619914L280.559,342.49047242662857L280.9164,336.0761016377953L282.7034,334.28929734631356L283.7756,333.9044874986972L284.8478,334.36087431740015L285.5626,343.5692518631674L286.6348,331.91246020880953L287.3496,326.980203398013L288.06440000000003,328.83175840244417L289.8514,290.0808732232847L290.2088,308.06670575215264L291.281,322.294568905837L292.3532,317.08583225259315L292.71060000000006,288.5314993515559L293.7828,314.00980870184264L294.855,304.55497613019645L297.7142,288.5729856781179L298.07160000000005,302.3510641341435L299.8586,316.11609302594064L300.21600000000007,318.8769285428371L300.5734,299.9152480347932L300.93080000000003,315.34187609360316L301.2882,322.53603474707097L301.6456,312.4198026664244L302.00300000000004,320.09551796349103L302.7178,321.26458350536734L303.07520000000005,332.275113739584L303.79,343.69234097102316L304.1474,342.2954045826139L305.2196,329.0863336586592L305.577,334.906345649741L305.9344,319.8419892080264L306.6492,330.047011706634L307.0066,336.8572979330713L309.151,329.2598333052973L310.2232,340.50862725590565L310.5806,345.8833581717252L313.4398,328.4900149030351L314.86940000000004,337.2976453054574L315.22679999999997,331.5858599105472L315.94160000000005,335.71878867360107L316.6564,334.074909567797L317.01380000000006,328.2776730134055L317.3712,338.5447856262251L318.086,344.70505319391685L318.4434,338.09212282544104L318.80080000000004,333.4370918770828L319.5156,338.20407330806785L319.87300000000005,334.19153489393165L321.66,316.66401184544986L324.5192,326.0784071072699L325.9488,334.47613517345286L327.021,308.5874992858899L327.3784,321.23249957153394L327.7358,303.39040883382944L330.595,318.8015180275704L331.66720000000004,334.92091081654223L332.73940000000005,321.9125464899254L333.0968,294.1766188030461L333.4542,317.39688037273675L334.169,321.707219132733L334.5264,330.4788769341852L335.59860000000003,320.6218716150566L338.8152,325.7040320599431L339.53,322.56787378142036L340.9596,330.307996996125L341.31700000000006,303.3375254704023L341.6744,308.46069710042315L342.03180000000003,330.77823644207206L343.4614,339.35785095615233L343.8188,342.4438014827823L344.1762,344.2953717987603L345.60580000000004,331.66085944289256L345.96320000000003,339.2001520293719L346.3206,328.6037275812595L346.678,301.62769109421026L348.46500000000003,307.434796474708L348.82239999999996,283.4281506120975L350.60940000000005,270.3987085490767L350.9668,274.26467967490055L351.3242,306.13698962312213L351.6816,314.9512846829642L352.039,314.7416799006876L353.1112,329.04864430404893L353.46860000000004,336.94555021879296L354.1834,338.93460285854854L354.89820000000003,336.6916708060382L356.6852,303.0440933927138L357.7574,320.6555469447192L359.187,333.2842372577406L359.90180000000004,322.99236053646257L360.2592,309.2572345036957L361.33140000000003,314.7616134294901L361.6888,313.2533316940577L363.8332,318.5338171982528L365.2628,327.88756304622444L365.62020000000007,336.24890146409825L366.6924,339.20388633300445L368.122,320.3586954361663L369.909,326.92067180715435L370.6238,321.23603944792893L370.9812,334.3198054869392L371.3386,339.4209742012544L372.76820000000004,309.49258452075264L373.483,310.77918707608796L374.5552,317.049330427471L375.27,331.8077800746644L375.6274,337.2264862266168L376.3422,342.53952809960646L377.4144,336.105535041582L378.1292,318.49968466131287L379.5588,334.7398107967877L380.27360000000004,337.61115920534536L380.631,327.65033188684356L382.41800000000006,318.2374718593789L382.7754,329.77157402471823L383.13280000000003,324.32112623301276L383.8476,329.2981302852622L385.63460000000003,340.5316054438846L387.77900000000005,345.89714508451254L388.85120000000006,348.4291961416166L389.2086,324.5193358667882L389.9234000000001,284.05705606552743L390.2808,294.14332454840735L390.63820000000004,310.5041765472263L390.99559999999997,299.015233201063L392.4252,301.74368537518325L393.14,313.0025748614736L393.4974,328.69245400779323L394.2122,330.546381495585L394.927,340.59328344280556L395.6418,306.7596064293197L396.714,296.08121840304636L397.7862,299.29600376910054L399.9306,303.973965897824L400.288,312.2789249932398L402.07500000000005,329.63280954139844L403.50460000000004,332.48514027029364L404.57680000000005,334.1965387076307L408.86560000000003,318.0415595882148L410.6526,324.8431175711107L411.7248,332.3604159972119L412.797,322.4380677801453L413.5118,333.66647703172356L414.22659999999996,289.5453407644887L414.94140000000004,302.2472044586932L416.01360000000005,318.1155954024887L416.371,311.8293572414932L417.0858,307.3703416176232L417.80060000000003,323.25129587966484L418.5154,318.3471411641625L419.2302,320.21555742577027L419.5876,318.587516273644L420.30240000000003,328.60705521873183L421.0172,311.2515058585118L422.44680000000005,304.96181260601617L423.51900000000006,323.18072392724605L423.8764,326.552070719984L424.9486,333.38578788653587L425.6634,316.18056364101244L426.73560000000003,307.23197454824384L428.1652,306.6737301834918L428.5226,318.7096926555496L429.2374,323.86945195696615L429.5948,318.0307620832706L429.95220000000006,326.89845724996235L430.66700000000003,323.9718016227047L432.0966,330.4630809736228L432.454,339.8560304023555L432.81140000000005,311.12816369595873L436.028,311.0732618539389L436.7428,324.0985025669088L437.815,325.04091972196346L438.52979999999997,324.23182456045083L439.24460000000005,334.74273109990685L440.31680000000006,316.3074568417623L441.0316,324.4899286505119L442.8186,323.21395719030716L448.1796,332.7574652232752L448.8944,339.8581154976015L449.2518,324.18759657128817L449.60920000000004,324.40710339731834L452.11100000000005,317.6660802202092L453.18320000000006,325.9923754048528L454.97020000000003,296.62451615200257L455.3276000000001,316.1165278730197L456.3998,296.19718945108457L457.11460000000005,317.92195003428714L457.8294,333.70589729329953L458.5442,340.4271747396161L458.90160000000003,289.4781230255878L459.259,313.20323745171635L460.6886,326.063760652848L461.40340000000003,317.97280184625424L462.47560000000004,327.55095383502527L463.1904,338.7960268464697L463.9052,330.42307065333637L464.62000000000006,326.7738423920018L465.33480000000003,312.213396344292L466.40700000000004,289.73167417021153L467.83660000000003,309.2317317748542L468.90880000000004,299.6263117921852L469.98100000000005,310.3576052571293L471.4106,327.10547224518666L472.12540000000007,330.2814651652938L473.1976,339.0597881900854L473.555,344.32678200496036L475.6994,329.61788738479436L477.129,332.4761869763312L477.8438,342.438439458526L478.20120000000003,307.17942731147923L479.9882,316.2640200232512L480.34560000000005,322.40204837758705L480.703,320.5866835720068L481.41780000000006,315.37382832502226L483.20480000000003,331.48975154046786L483.5622,339.0974872879171L483.9196,316.17121964547755L485.70660000000004,325.0954590600138L487.1362,286.464548163281L487.4936,303.83509253433226L490.3528,285.39196461150846L491.0676,292.88245149417776L493.56940000000003,310.43492544196124L493.9268,301.03550071972217L494.28420000000006,296.0831186136515L496.07120000000003,296.54805298637274L496.4286,283.76883179182363L497.14340000000004,300.84311725691236L497.8582,269.1640521723292L498.57300000000004,254.28024948521573L498.9304,291.39724060022036L499.64520000000005,306.79470799649584L500.00260000000003,308.47318843426115L501.0748,317.72754942419306L501.78960000000006,229.12380238178855L504.2914,263.2451905199822L505.3636,236.29620522108024L505.72100000000006,226.9995413144663L506.0784,265.4069975159525L506.43580000000003,249.27692578229878L506.7932,276.7116100148338L507.1506,247.12514782708212L507.8654,272.67145233261294L509.295,290.7483259450223L510.00980000000004,293.3471773851952L511.08200000000005,312.08830643111713L511.4394,286.220256585943L512.1542000000001,294.06669940611124L513.2264,309.7709287345758L514.2986000000001,320.56801178620003L515.0134,305.74080707172004L515.3708,319.524484243032L515.7282,316.79832690945557L517.8726,332.3444506911279L518.23,314.18121586922217L518.5874,312.90509315789694L519.6596000000001,330.0085104401927L520.017,325.15056080957015L520.3744,318.799427394833L520.7318,332.8578382550816L522.5188,326.86015749850355L523.2336,324.6360944991021L525.0206,302.68347488127944L525.7354,305.31917583785855L526.8076,310.33696004816966L527.5224000000001,312.6603578470836L528.952,310.6180328900684L530.739,283.27627427949557L531.4538,292.3003100222428L531.8112,313.52200419516384L532.1686000000001,322.13138433528013L534.6704,325.2351942375317L535.3852,322.2865710879736L535.7426,302.64830628914774L536.1,313.5453474098523L536.8148000000001,317.33448117318414L537.1722,314.10977961300136L537.5296,302.55314049507354L537.8870000000001,250.25915702431683L538.6018,251.87185785095375L539.3166,207.47947834693588L540.3888000000001,246.82223246270698L540.7461999999999,229.191521295806L541.1036,268.0967309593018L541.8184,292.12712948467197L542.1758000000001,297.6108231453486L542.8906,294.0283120690274L543.6054,309.0606236050528L547.1794,301.5854650721226L550.0386000000001,291.6021881341826L550.396,296.60858560778235L550.7534,300.29969681921483L552.183,288.0816362733471L553.97,284.18716358219007L556.1144,281.16320724022313L556.4718,293.0942879804975L556.8292,287.88202733375306L557.1866000000001,275.1328527638882L557.9014,284.66516620378746L558.6162,291.07182699499975L559.331,311.4103689242726L560.7606000000001,327.0498577181999L562.1902,311.00446008546544L563.2624,296.5663124149156L565.0494000000001,292.0270601762221L565.7642,298.9253270148242L567.9086,282.4461052998036L568.2660000000001,288.36584499806395L568.9807999999999,293.29223427156563L569.3382,314.8044314720303L569.6956,307.09356797412727L570.4104000000001,266.72886805720367L573.2696,272.0627753797767L575.0566,280.7613015915024L575.7714000000001,292.1658718639924L576.4861999999999,301.0704322093045L577.201,292.6677138710372L580.0602,282.8151737771678L580.775,297.52183153902797L581.4898000000001,295.34946255978036L584.349,289.9224048085955L584.7064,292.8516247033391L585.4212000000001,287.0491566401853L586.4934000000001,284.2549485295657L586.8508,310.0693327541031L587.5656,249.27069056155273L587.923,276.7078688823862L588.6378000000001,281.4865395112499L588.9952000000001,293.28828734311355L590.0674,303.80569967859543L590.7822000000001,274.3779652617027L592.2118,293.83405188429435L595.7858,273.20588567603113L596.1432000000001,207.90898595107322L596.5006000000001,251.8908461160985L596.858,256.28723494238636L597.5728,273.3577955108864L598.6450000000001,253.36013185198635L599.0024,237.23789729301L599.7172,209.6954656485333L600.0746,222.7227339345745L602.219,217.48091308801745L602.5764,252.82309330735592L603.6486,282.96294689350447L604.7207999999999,263.9341317724663L605.0782,266.94956997257066L605.4356,256.38792380172424L605.793,289.2254815537618L606.8652,286.9352889322571L607.2226,291.7466279048088L608.6522,289.8225221974307L609.7244000000001,292.10442240936754L610.0817999999999,313.4044716274387L611.154,318.6245011582814L611.5114000000001,286.0183370586052L611.8688,296.6946385987995L612.2262,259.80223770473424L612.941,284.4013426228405L613.6558,290.2262601191589L614.0132,301.9684833442226L616.8724000000001,300.07927182471536L618.6594,319.56392673119285L619.3742,327.131083311443L620.089,288.37319544141127L620.4464,275.4275536284831L620.8038,242.23107763163532L621.1612,278.6695556698903L621.5186,281.9762788564796L622.2334000000001,255.0948582229787L622.5908000000001,293.9478240246963L623.663,268.46323986936324L624.3778000000001,293.03430755798155L624.7352000000001,223.92967544387986L625.0926,246.38325981178247L625.8074,281.8481377052513L626.8796,294.8797917140599L627.237,293.07696593752684L627.5944000000001,282.3734522897888L629.024,253.95861682841874L629.3814,234.16062464250578L630.4535999999999,229.84182933095803L631.1684,234.81055214402937L632.9554,259.78451310459945L635.4572000000001,216.35070786275966L636.8868,251.45769744492853L637.2442000000001,262.21280028513894L637.6016000000001,197.18949835290155L637.959,220.03006264810458L638.3164,228.92349213431729L639.3886000000001,237.69591346240853L639.7460000000001,249.14482080471788L641.5330000000001,276.63234702828527L644.0348,228.52122639878934L646.8940000000001,246.38909947563724L647.6088,161.5789142308369L648.3236,225.46734853850214L650.4680000000001,241.807681850374L651.5402,277.72824547386074L655.4716,283.4733109206801L656.1864,269.0512592796808L657.2586,259.02348284053573L657.616,282.55954424977597L658.3308000000001,294.61936291350196L659.7604,279.17525411173756L660.1178000000001,223.1742433761334L660.4752,252.80272784386187L660.8326,205.28890943358985L661.9048,246.19516384197212L662.6196,244.6225528506378L662.977,251.23898625583723L663.3344000000001,281.3252099353205L665.1214,301.43876232482864L666.1936,201.48143921307903L668.6954000000001,210.23431807330198L669.0528,188.68240902579936L671.5545999999999,192.933081779116L672.2694,209.2289399765605L672.9842000000001,229.31554580411813L673.3416000000001,243.42932748247088L673.699,190.04305103493706L674.0564,215.74219425732588L674.4138,152.12531655439557L675.8434,192.99155356900098L676.2008000000001,241.5658412323097L677.6304,252.15405019393125L677.9878,265.3797028436315L680.4896000000001,258.88236716072436L681.2044,246.04942029643462L682.6340000000001,271.3387430869517L683.3488,300.9450640339892L685.1358,307.02522023857534L686.2080000000001,275.62240487041794L686.9228,216.23162474043255L687.6376,252.073520298805L689.0672000000001,172.54956672473753L691.2116000000001,209.36974003484252L691.9264000000001,169.60729856636004L692.2838,217.9134700489069L693.356,226.96626384752597L696.2152,217.96521285397012L697.2874,204.3173095305639L699.0744000000001,255.2340220819747L699.4318000000001,202.62404961282118L699.7891999999999,166.93442976769268L700.504,188.13156695152472L701.2188000000001,221.46803108000574L702.291,181.6771822843671L703.0058,247.83540027971117L703.7206,220.86487653146304L704.7928,215.6789259188778L705.1501999999999,183.70190100587214L705.5076,167.26477696715966L708.0094,208.260684362114L708.3668,172.3782287990866L708.7242000000001,117.17239182490653L709.439,151.40161691312576L709.7964000000001,104.58642469333L711.226,130.79185481599802L711.5834,141.016931071417L712.2982000000001,167.0828859155775L712.6555999999999,174.47518609480105L713.3704,229.08147529324424L714.4426000000001,175.24888517594655L715.5148,230.23296746920428L716.2296000000001,175.25250775424982L716.587,180.06423192527717L718.0166,226.93672097334814L718.7314,215.88566894764523L720.161,162.52049227767807L720.5184,195.10502263933412L721.9480000000001,141.11755903814588L722.6628000000001,174.01598996834207L723.3776,245.30050307191436L723.7350000000001,261.26757457042135L724.0924,230.29872656043466L724.4498,233.02287229989713L724.8072000000001,241.5300870163019L725.1646000000001,272.75077948250845L725.8794,244.06137678041415L727.6664,224.09864425006668L728.0238,228.61555018640365L729.8108,263.627511930024L730.5256,229.65287079437803L731.2404000000001,151.53717702208135L732.6700000000001,215.31866984961246L733.0274000000001,258.3984746370402L733.7422,228.57726660040592L734.4570000000001,154.32817814206174L735.8866,214.93145233978254L736.244,218.30432594932407L736.9588,273.24805011504895L737.3162,275.97428461448396L738.0310000000001,245.30820713232671L738.7457999999999,255.77401518848694L739.1032,167.2098636585467L739.818,114.07137274058255L740.5328000000001,197.6500963716223L740.8901999999999,201.75005782297336L742.6772,189.09003469378402L743.0346,155.37765717990675L744.4642,108.34659430794403L747.3234,78.75341113022102L749.1104,126.28841031449625L750.1826,89.51850073415233L750.8974000000001,120.37655498594597L751.9696,85.97138753702211L752.327,135.430105249486L753.3992000000001,95.00351769514617L754.114,92.05301970799678L754.8288,107.46453909752529L755.1862000000001,78.22417800396971L756.2584,60.67996134783641L756.6158,101.69888589961096L756.9732,96.07024063067564L758.4028000000001,118.80941710567811L759.1176,151.69655935431592L759.8324,170.05429924895319L760.1898,150.82894318573554L763.0490000000001,104.24282045689591L763.4064,96.22205591050118L763.7638000000001,140.8932335463007L766.9804,109.96503103687138L768.0526000000001,79.7244731675774L769.1248,87.00922935509186L769.4822,65.95099215850968L769.8396,115.85786802237851L770.9118,149.23835717706348L771.2692000000001,152.772105215329L771.6266,147.3323540382883L772.3414000000001,102.1448669684275L773.0562,124.5160110901474L773.4136000000001,88.45506119954297L773.7710000000001,101.86940035608944L774.4858,74.86709475910817L774.8432,163.131165946374L776.9876,157.67142684055165L777.7024000000001,204.56649246796738L779.8468000000001,199.02716820805315L780.2042,184.707210015741L782.3486,124.5697805548991L782.706,88.48732287839402L783.0634,66.83784827249099L783.4208000000001,60.03361805440363L784.1356,114.36926174173311L784.8504,91.30155704503989L785.2078,100.14093422702393L785.5652,101.32092417257797L785.9226,137.76709995809227L786.28,105.34025997485537L786.6374000000001,169.73142871218593L787.7096,163.00612995458428L788.067,111.54913251820511L790.2114,112.97675223819573L790.5688,104.21150588837202L790.9262000000001,163.5559944421141L791.2836,111.87905121072299L795.215,203.8947034537065L795.5724,232.30045843586026L797.002,153.1257296069707L797.3594,105.62089230963699L798.0742,78.49253538578222L798.789,60.84097577692387L799.8612,106.60640364797251L800.9334,78.39656946151075L801.6482000000001,60.783396222361034L802.0056000000001,62.58640136978033L802.7204,121.3991135491409L803.7926000000001,123.69764994766635L804.1500000000001,87.96404451405431L804.8648000000001,66.52388125388723L805.2222,84.58705602505961L805.5796,118.10496088776301L807.0092000000001,135.46661289629418L807.3666000000001,159.62905864686743L808.0814,152.13379882448407L808.4388,135.26573384014497L808.7962,147.82489484954152L809.1536000000001,102.44039145517945L810.2258,97.20241669128944L810.5832,102.30690456022819L813.4424000000001,119.11505182704599L814.5146000000001,120.95266745986396L815.2294,86.31705502137288L815.9442,65.53568755827831L816.6590000000001,125.91777617133062L818.0886,131.21975661188927L818.8034000000001,92.47730851258808L819.1608,69.91911238028013L819.5182,74.940558337259L820.2330000000001,65.58251682053725L822.3774000000001,53.09496463777691L823.0922,45.602433328120696L824.8792,41.10691454232699L826.3088000000001,66.58778508903254L827.0236,53.69812559887413L828.8106,134.6225117229608L830.2402000000001,102.76623430650375L830.5975999999999,157.87792240208407L832.0272000000001,108.47220798670497L832.3846,146.1815066102048L833.4568,101.45435851157742L836.316,88.36352419785555L836.6734,103.87629633689511L838.4604,76.07123234759166L838.8178,84.13001213582771L839.5326000000001,76.59437091786032L840.2474,59.70207709617068L840.6048000000001,134.78851898497516L840.9622,94.61856593643967L841.3196,78.07659410731839L841.677,60.59141100984556L844.1788,50.10030115136186L844.5362,131.7765443271808L845.9658000000001,92.81138114176298L846.6806,78.36682868505784L847.7528,60.76555175648923L848.1102000000001,57.077512872075374L853.4712000000001,47.99196226869975L854.9008,65.90790463394706L857.0452,53.29019732582282L857.4026,45.71957294094818L857.7600000000001,41.17719831002347L858.4748,38.45177353146863L860.2618,36.81651866433572L860.6192,35.835365744055935L862.0488000000001,101.22485581006993L862.4062,74.48036803149648L866.3376000000001,58.43367536435238L866.695,71.48565976406599L867.4098000000001,56.63685040389413L868.4820000000001,47.72756478779098L869.9116,42.38199341812913L870.269,39.17465059633207L870.9838000000001,37.250244903253815L871.6985999999999,163.2410560328614L872.4134,111.69008816517135L872.7708,80.75950744455741L873.4856,62.20115901218901L873.843,51.066149952767944L874.2004000000001,44.38514451711529L874.5578,40.37654125572374L874.9152,37.97137929888879L877.7744,36.528282124787836L878.4892000000001,35.66242382032726L879.204,35.14290883765091L879.5614,34.83119984804512L880.2762,99.24781081791798L880.991,84.29050467256894L881.3484,69.81793916717771L882.0632,55.636218045761154L882.4206,47.1271853729113L884.2076000000001,50.26903849647408L884.9224,43.90687764333899L886.352,40.08958113145792L887.0668000000001,40.5482941334202L887.4242,38.07443102550667L888.8538,39.339204069849416L889.2112000000001,37.34897698736421L889.5686000000001,36.15484073787309L890.9982,35.43835898817838L891.7130000000001,35.0084699383616L892.0704,34.7505365084715L892.4278,34.595776450537414L893.5000000000001,34.502920415777055L894.2148,99.73811588582987L894.5722000000001,76.33741498604337L895.6444000000001,68.48244899162603L896.0018,54.834923940430144L896.3592,46.64640890971265L897.0740000000001,41.733299891282115L899.5758,38.78543448022384L900.648,54.88580614267977L902.0776000000001,46.67693823106242L902.4350000000001,41.75161748409204L902.7924,38.796425035909806L903.5072,63.82694593063678L904.5794000000001,52.04162210383657L906.7238000000001,44.97042780775655L907.796,46.22589304829023L909.2256,75.84462673806507L911.37,59.25223058829363L914.2292000000001,73.3513383529762L914.9440000000001,57.75625755724019L915.3014000000001,48.39920907979865L916.0162,42.78497999333371L916.3736,39.416442541454785L916.731,37.39532007032739L918.518,43.742646587650995L919.9476000000001,39.99104249804515L920.305,71.41644368064527L920.6624,77.21350257202351L921.3772,60.07355608866868L921.7346000000001,89.65140638047393L922.092,67.53629837373893L923.1642,105.81268811515241L924.2364,78.60761286909144L925.6659999999999,60.91002226690938L926.3808,55.78964972378196L926.7382,63.71378983426911L928.5252,69.84281935510694L931.3844,101.6984188857914L932.0992,118.06268769511121L933.8862,91.45579443524855L934.9584,68.61893120660369L935.6732000000001,65.22590417850768L936.0306,111.98645159801367L937.1028,80.93732550426279L937.4602,135.846031666194L937.8176000000001,132.3658008178982L939.9620000000001,152.270389581648L940.6768,171.77314283989787L942.1064000000001,163.54388570393874L943.5360000000001,118.74451324054507L945.3230000000001,84.9921624897816L945.6804000000001,64.74075203932352L946.7526,97.94990576904871L947.11,72.51539800688374L947.8248000000001,57.254693349584784L951.3988,48.09827055520543L951.7562,61.16078051494151L953.1858000000001,51.816468308964886L953.5432000000001,44.83533553083345L953.9006,68.1375649548637L954.258,55.315266245645546L955.3302000000001,46.93461429284184L956.4024000000001,83.82985948479603L957.832,104.5924611454231L958.9042000000001,76.50093123270841L959.619,60.33328601235229L960.6912000000001,51.31997160741139L961.0486,54.84652841899225L961.7634,63.83518977866811L962.1208,52.046568412655404L962.8356000000001,44.973395593047826L963.193,77.15494644673777L963.5504,95.77660423167902L964.2652,71.21141708446197L965.3374,56.47230479613171L965.6948,47.62883742313363L966.4096000000001,42.32275699933473L967.1244,39.13910874505535L968.554,37.228919792487716L969.2688,54.63917005731082L969.9836,124.878047488932L971.4132000000001,88.6722830388137L972.128,79.3197334596519L973.2002,61.33729462124569L973.5576000000001,62.918740409111024L973.9150000000001,54.2457897000121L975.7020000000001,46.29292836546182L976.0594,41.521211564731686L976.7742000000001,38.65818148429355L977.489,39.00218161784886L977.8464000000001,37.146763516163844L979.2760000000001,36.03351265515289L981.0630000000001,35.36556213854635L982.4926,34.964791828582406L984.6370000000001,58.77887509714941L986.0666,49.01277960374421L986.7814000000001,70.6440313986102L987.4962,56.13187338462063L988.5684000000001,74.22821493986328L989.2832,90.58420169119069L989.6406000000001,68.095975560169L990.3554,68.34849442701051L991.0702,54.75455120166083" style="fill: none;" fill="none"></path></g></g></g></g><g opacity="0.2"><g><g><g><path stroke="rgb(0, 119, 187)" stroke-width="2px" d="M71.48,340.2L71.8374,314.42727272727274L72.5522,347.07272727272726L72.90960000000001,353.94545454545454L73.9818,360.8181818181818L74.3392,312.7090909090909L75.4114,352.22727272727275L75.76880000000001,352.22727272727275L76.84100000000001,352.22727272727275L80.05760000000001,331.6090909090909L80.415,333.3272727272727L80.7724,348.7909090909091L81.1298,328.1727272727273L81.8446,347.07272727272726L83.2742,340.2L83.6316,350.5090909090909L84.7038,347.07272727272726L86.8482,345.3545454545455L87.9204,347.07272727272726L88.6352,355.6636363636364L90.0648,321.3L90.4222,336.76363636363635L91.4944,314.42727272727274L92.2092,329.8909090909091L92.924,335.04545454545456L93.6388,348.7909090909091L96.1406,355.6636363636364L97.5702,335.04545454545456L97.92760000000001,348.7909090909091L98.285,321.3L98.64240000000001,352.22727272727275L100.4294,353.94545454545454L101.14420000000001,348.7909090909091L101.85900000000001,323.0181818181818L102.9312,331.6090909090909L104.3608,347.07272727272726L105.07560000000001,347.07272727272726L105.43299999999999,352.22727272727275L106.1478,355.6636363636364L106.5052,326.45454545454544L109.007,360.8181818181818L109.3644,343.6363636363636L110.4366,355.6636363636364L110.794,353.94545454545454L111.15140000000001,333.3272727272727L112.581,350.5090909090909L115.4402,355.6636363636364L115.7976,321.3L116.15500000000002,357.3818181818182L116.8698,340.2L117.22720000000001,357.3818181818182L117.5846,357.3818181818182L119.0142,348.7909090909091L119.37160000000002,359.1L119.729,350.5090909090909L120.08640000000001,290.3727272727273L121.516,357.3818181818182L122.5882,345.3545454545455L122.9456,352.22727272727275L123.30300000000001,336.76363636363635L123.6604,328.1727272727273L124.01780000000001,304.1181818181818L124.3752,345.3545454545455L125.8048,328.1727272727273L126.16220000000001,360.8181818181818L126.5196,345.3545454545455L126.87700000000001,348.7909090909091L131.88060000000002,355.6636363636364L132.238,331.6090909090909L134.7398,355.6636363636364L135.09720000000002,357.3818181818182L136.1694,310.9909090909091L136.5268,348.7909090909091L137.2416,345.3545454545455L137.599,352.22727272727275L139.0286,360.8181818181818L141.53040000000001,316.1454545454545L142.24519999999998,343.6363636363636L145.1044,359.1L146.8914,341.91818181818184L147.24880000000002,286.93636363636364L147.6062,324.73636363636365L148.6784,345.3545454545455L149.3932,347.07272727272726L149.7506,352.22727272727275L150.10800000000003,360.8181818181818L150.8228,364.25454545454545L151.895,345.3545454545455L152.2524,352.22727272727275L152.6098,355.6636363636364L153.68200000000002,331.6090909090909L154.0394,350.5090909090909L155.469,304.1181818181818L159.043,347.07272727272726L159.40040000000002,335.04545454545456L161.5448,345.3545454545455L161.9022,329.8909090909091L162.61700000000002,340.2L164.7614,335.04545454545456L165.4762,359.1L165.83360000000002,357.3818181818182L166.191,353.94545454545454L167.6206,350.5090909090909L168.33540000000002,353.94545454545454L168.6928,355.6636363636364L170.12240000000003,335.04545454545456L170.8372,331.6090909090909L171.9094,336.76363636363635L172.26680000000002,302.4L172.6242,305.8363636363636L173.6964,333.3272727272727L174.41119999999998,347.07272727272726L174.76860000000002,333.3272727272727L175.126,357.3818181818182L176.913,350.5090909090909L177.2704,340.2L178.3426,305.8363636363636L179.4148,345.3545454545455L181.5592,336.76363636363635L182.27400000000003,355.6636363636364L183.3462,350.5090909090909L185.4906,357.3818181818182L186.2054,355.6636363636364L187.2776,341.91818181818184L188.34980000000002,353.94545454545454L188.7072,343.6363636363636L189.0646,355.6636363636364L189.422,340.2L189.7794,348.7909090909091L191.20900000000003,353.94545454545454L191.56640000000002,338.4818181818182L192.2812,353.94545454545454L192.996,335.04545454545456L195.49779999999998,336.76363636363635L195.85520000000002,331.6090909090909L196.57,345.3545454545455L196.9274,312.7090909090909L197.6422,352.22727272727275L197.99960000000002,357.3818181818182L199.4292,250.85454545454547L199.7866,353.94545454545454L200.144,286.93636363636364L201.931,359.1L202.6458,347.07272727272726L203.0032,359.1L203.71800000000002,357.3818181818182L204.0754,329.8909090909091L204.43280000000001,328.1727272727273L205.50500000000002,302.4L205.8624,355.6636363636364L206.57720000000003,324.73636363636365L206.93460000000002,343.6363636363636L207.292,360.8181818181818L208.00680000000003,271.4727272727273L208.7216,348.7909090909091L209.7938,331.6090909090909L210.15120000000002,302.4L211.22340000000003,341.91818181818184L213.0104,343.6363636363636L213.36780000000002,293.8090909090909L214.0826,345.3545454545455L214.44000000000003,362.53636363636366L214.7974,310.9909090909091L215.51220000000004,314.42727272727274L216.58440000000002,333.3272727272727L218.014,340.2L219.08620000000002,335.04545454545456L219.4436,353.94545454545454L220.15840000000003,347.07272727272726L220.5158,357.3818181818182L221.9454,326.45454545454544L222.6602,348.7909090909091L224.80460000000002,329.8909090909091L225.51940000000002,359.1L226.23420000000002,242.26363636363638L227.66380000000004,274.90909090909093L229.0934,357.3818181818182L230.1656,300.6818181818182L230.8804,357.3818181818182L231.23780000000002,298.9636363636364L232.31000000000003,343.6363636363636L232.66740000000001,352.22727272727275L233.0248,353.94545454545454L233.7396,341.91818181818184L234.45440000000002,362.53636363636366L235.1692,281.7818181818182L238.0284,353.94545454545454L239.10060000000001,343.6363636363636L239.8154,329.8909090909091L240.5302,316.1454545454545L241.60240000000002,343.6363636363636L242.6746,281.7818181818182L243.032,316.1454545454545L243.7468,338.4818181818182L244.46160000000003,321.3L245.8912,345.3545454545455L246.2486,321.3L246.60600000000002,352.22727272727275L248.7504,338.4818181818182L249.10780000000003,312.7090909090909L249.4652,350.5090909090909L249.82260000000002,355.6636363636364L252.32440000000003,347.07272727272726L253.3966,305.8363636363636L253.75400000000002,350.5090909090909L254.8262,343.6363636363636L255.54100000000003,305.8363636363636L256.2558,316.1454545454545L256.9706,326.45454545454544L257.328,347.07272727272726L257.6854,331.6090909090909L258.7576,341.91818181818184L259.115,336.76363636363635L259.4724,353.94545454545454L260.1872,295.5272727272727L261.6168,350.5090909090909L262.689,286.93636363636364L264.1186,353.94545454545454L264.8334,328.1727272727273L265.5482,338.4818181818182L266.263,298.9636363636364L266.6204,343.6363636363636L269.1222,335.04545454545456L269.4796,341.91818181818184L273.0536,292.0909090909091L273.76840000000004,307.55454545454546L274.12579999999997,348.7909090909091L275.91280000000006,336.76363636363635L276.62760000000003,321.3L278.0572,347.07272727272726L278.77200000000005,355.6636363636364L279.12940000000003,343.6363636363636L280.2016,324.73636363636365L280.559,352.22727272727275L280.9164,326.45454545454544L282.7034,331.6090909090909L283.7756,333.3272727272727L284.8478,335.04545454545456L285.5626,357.3818181818182L286.6348,314.42727272727274L287.3496,319.58181818181816L288.06440000000003,331.6090909090909L289.8514,231.95454545454547L290.2088,335.04545454545456L291.281,343.6363636363636L292.3532,309.27272727272725L292.71060000000006,245.70000000000002L293.7828,352.22727272727275L294.855,290.3727272727273L297.7142,264.6L298.07160000000005,323.0181818181818L299.8586,336.76363636363635L300.21600000000007,323.0181818181818L300.5734,271.4727272727273L300.93080000000003,338.4818181818182L301.2882,333.3272727272727L301.6456,297.24545454545455L302.00300000000004,331.6090909090909L302.7178,323.0181818181818L303.07520000000005,348.7909090909091L303.79,360.8181818181818L304.1474,340.2L305.2196,309.27272727272725L305.577,343.6363636363636L305.9344,297.24545454545455L306.6492,345.3545454545455L307.0066,347.07272727272726L309.151,317.8636363636364L310.2232,357.3818181818182L310.5806,353.94545454545454L313.4398,302.4L314.86940000000004,350.5090909090909L315.22679999999997,323.0181818181818L315.94160000000005,341.91818181818184L316.6564,331.6090909090909L317.01380000000006,319.58181818181816L317.3712,353.94545454545454L318.086,353.94545454545454L318.4434,328.1727272727273L318.80080000000004,326.45454545454544L319.5156,345.3545454545455L319.87300000000005,328.1727272727273L321.66,290.3727272727273L324.5192,340.2L325.9488,347.07272727272726L327.021,269.75454545454545L327.3784,340.2L327.7358,276.6272727272727L330.595,341.91818181818184L331.66720000000004,359.1L332.73940000000005,302.4L333.0968,252.57272727272726L333.4542,352.22727272727275L334.169,328.1727272727273L334.5264,343.6363636363636L335.59860000000003,305.8363636363636L338.8152,333.3272727272727L339.53,317.8636363636364L340.9596,341.91818181818184L341.31700000000006,262.8818181818182L341.6744,316.1454545454545L342.03180000000003,364.25454545454545L343.4614,352.22727272727275L343.8188,347.07272727272726L344.1762,347.07272727272726L345.60580000000004,312.7090909090909L345.96320000000003,350.5090909090909L346.3206,312.7090909090909L346.678,261.1636363636364L348.46500000000003,316.1454545454545L348.82239999999996,247.4181818181818L350.60940000000005,250.85454545454547L350.9668,280.06363636363636L351.3242,353.94545454545454L351.6816,328.1727272727273L352.039,314.42727272727274L353.1112,350.5090909090909L353.46860000000004,348.7909090909091L354.1834,341.91818181818184L354.89820000000003,333.3272727272727L356.6852,252.57272727272726L357.7574,347.07272727272726L359.187,352.22727272727275L359.90180000000004,307.55454545454546L360.2592,288.6545454545454L361.33140000000003,323.0181818181818L361.6888,310.9909090909091L363.8332,326.45454545454544L365.2628,341.91818181818184L365.62020000000007,348.7909090909091L366.6924,343.6363636363636L368.122,292.0909090909091L369.909,336.76363636363635L370.6238,312.7090909090909L370.9812,353.94545454545454L371.3386,347.07272727272726L372.76820000000004,264.6L373.483,312.7090909090909L374.5552,326.45454545454544L375.27,353.94545454545454L375.6274,345.3545454545455L376.3422,350.5090909090909L377.4144,326.45454545454544L378.1292,292.0909090909091L379.5588,359.1L380.27360000000004,341.91818181818184L380.631,312.7090909090909L382.41800000000006,304.1181818181818L382.7754,347.07272727272726L383.13280000000003,316.1454545454545L383.8476,336.76363636363635L385.63460000000003,357.3818181818182L387.77900000000005,353.94545454545454L388.85120000000006,352.22727272727275L389.2086,288.6545454545454L389.9234000000001,223.36363636363635L390.2808,309.27272727272725L390.63820000000004,335.04545454545456L390.99559999999997,281.7818181818182L392.4252,305.8363636363636L393.14,329.8909090909091L393.4974,352.22727272727275L394.2122,333.3272727272727L394.927,355.6636363636364L395.6418,256.0090909090909L396.714,280.06363636363636L397.7862,304.1181818181818L399.9306,310.9909090909091L400.288,324.73636363636365L402.07500000000005,355.6636363636364L403.50460000000004,336.76363636363635L404.57680000000005,336.76363636363635L408.86560000000003,293.8090909090909L410.6526,335.04545454545456L411.7248,343.6363636363636L412.797,307.55454545454546L413.5118,350.5090909090909L414.22659999999996,223.36363636363635L414.94140000000004,321.3L416.01360000000005,341.91818181818184L416.371,302.4L417.0858,300.6818181818182L417.80060000000003,347.07272727272726L418.5154,310.9909090909091L419.2302,323.0181818181818L419.5876,316.1454545454545L420.30240000000003,343.6363636363636L421.0172,285.21818181818185L422.44680000000005,295.5272727272727L423.51900000000006,350.5090909090909L423.8764,331.6090909090909L424.9486,343.6363636363636L425.6634,290.3727272727273L426.73560000000003,293.8090909090909L428.1652,305.8363636363636L428.5226,336.76363636363635L429.2374,331.6090909090909L429.5948,309.27272727272725L429.95220000000006,340.2L430.66700000000003,319.58181818181816L432.0966,340.2L432.454,353.94545454545454L432.81140000000005,268.03636363636366L436.028,310.9909090909091L436.7428,343.6363636363636L437.815,326.45454545454544L438.52979999999997,323.0181818181818L439.24460000000005,350.5090909090909L440.31680000000006,288.6545454545454L441.0316,336.76363636363635L442.8186,321.3L448.1796,347.07272727272726L448.8944,350.5090909090909L449.2518,300.6818181818182L449.60920000000004,324.73636363636365L452.11100000000005,307.55454545454546L453.18320000000006,338.4818181818182L454.97020000000003,252.57272727272726L455.3276000000001,345.3545454545455L456.3998,266.3181818181818L457.11460000000005,350.5090909090909L457.8294,357.3818181818182L458.5442,350.5090909090909L458.90160000000003,213.05454545454546L459.259,348.7909090909091L460.6886,345.3545454545455L461.40340000000003,305.8363636363636L462.47560000000004,341.91818181818184L463.1904,355.6636363636364L463.9052,317.8636363636364L464.62000000000006,321.3L465.33480000000003,290.3727272727273L466.40700000000004,256.0090909090909L467.83660000000003,338.4818181818182L468.90880000000004,285.21818181818185L469.98100000000005,326.45454545454544L471.4106,352.22727272727275L472.12540000000007,335.04545454545456L473.1976,352.22727272727275L473.555,352.22727272727275L475.6994,307.55454545454546L477.129,336.76363636363635L477.8438,357.3818181818182L478.20120000000003,254.2909090909091L479.9882,329.8909090909091L480.34560000000005,331.6090909090909L480.703,317.8636363636364L481.41780000000006,307.55454545454546L483.20480000000003,355.6636363636364L483.5622,350.5090909090909L483.9196,281.7818181818182L485.70660000000004,338.4818181818182L487.1362,228.51818181818183L487.4936,329.8909090909091L490.3528,257.72727272727275L491.0676,304.1181818181818L493.56940000000003,336.76363636363635L493.9268,286.93636363636364L494.28420000000006,288.6545454545454L496.07120000000003,297.24545454545455L496.4286,264.6L497.14340000000004,326.45454545454544L497.8582,221.64545454545456L498.57300000000004,231.95454545454547L498.9304,347.07272727272726L499.64520000000005,329.8909090909091L500.00260000000003,310.9909090909091L501.0748,331.6090909090909L501.78960000000006,96.21818181818179L504.2914,314.42727272727274L505.3636,195.87272727272727L505.72100000000006,213.05454545454546L506.0784,323.0181818181818L506.43580000000003,225.0818181818182L506.7932,317.8636363636364L507.1506,202.74545454545455L507.8654,310.9909090909091L509.295,317.8636363636364L510.00980000000004,297.24545454545455L511.08200000000005,340.2L511.4394,247.4181818181818L512.1542000000001,305.8363636363636L513.2264,333.3272727272727L514.2986000000001,336.76363636363635L515.0134,283.5L515.3708,340.2L515.7282,312.7090909090909L517.8726,355.6636363636364L518.23,286.93636363636364L518.5874,310.9909090909091L519.6596000000001,355.6636363636364L520.017,317.8636363636364L520.3744,309.27272727272725L520.7318,353.94545454545454L522.5188,317.8636363636364L523.2336,321.3L525.0206,269.75454545454545L525.7354,309.27272727272725L526.8076,317.8636363636364L527.5224000000001,316.1454545454545L528.952,307.55454545454546L530.739,242.26363636363638L531.4538,305.8363636363636L531.8112,345.3545454545455L532.1686000000001,335.04545454545456L534.6704,329.8909090909091L535.3852,317.8636363636364L535.7426,273.1909090909091L536.1,329.8909090909091L536.8148000000001,323.0181818181818L537.1722,309.27272727272725L537.5296,285.21818181818185L537.8870000000001,171.81818181818184L538.6018,254.2909090909091L539.3166,140.89090909090908L540.3888000000001,305.8363636363636L540.7461999999999,202.74545454545455L541.1036,326.45454545454544L541.8184,328.1727272727273L542.1758000000001,305.8363636363636L542.8906,288.6545454545454L543.6054,331.6090909090909L547.1794,290.3727272727273L550.0386000000001,276.6272727272727L550.396,304.1181818181818L550.7534,305.8363636363636L552.183,269.75454545454545L553.97,278.3454545454546L556.1144,276.6272727272727L556.4718,310.9909090909091L556.8292,280.06363636363636L557.1866000000001,256.0090909090909L557.9014,298.9636363636364L558.6162,300.6818181818182L559.331,341.91818181818184L560.7606000000001,350.5090909090909L562.1902,286.93636363636364L563.2624,274.90909090909093L565.0494000000001,285.21818181818185L565.7642,309.27272727272725L567.9086,257.72727272727275L568.2660000000001,297.24545454545455L568.9807999999999,300.6818181818182L569.3382,347.07272727272726L569.6956,295.5272727272727L570.4104000000001,206.1818181818182L573.2696,280.06363636363636L575.0566,293.8090909090909L575.7714000000001,309.27272727272725L576.4861999999999,314.42727272727274L577.201,280.06363636363636L580.0602,268.03636363636366L580.775,319.58181818181816L581.4898000000001,292.0909090909091L584.349,281.7818181818182L584.7064,297.24545454545455L585.4212000000001,278.3454545454546L586.4934000000001,280.06363636363636L586.8508,348.7909090909091L587.5656,158.0727272727273L587.923,317.8636363636364L588.6378000000001,288.6545454545454L588.9952000000001,310.9909090909091L590.0674,319.58181818181816L590.7822000000001,230.23636363636362L592.2118,323.0181818181818L595.7858,242.26363636363638L596.1432000000001,109.96363636363634L596.5006000000001,317.8636363636364L596.858,262.8818181818182L597.5728,298.9636363636364L598.6450000000001,223.36363636363635L599.0024,213.05454545454546L599.7172,168.38181818181818L600.0746,242.26363636363638L602.219,209.61818181818182L602.5764,305.8363636363636L603.6486,328.1727272727273L604.7207999999999,235.3909090909091L605.0782,271.4727272727273L605.4356,240.54545454545453L605.793,338.4818181818182L606.8652,283.5L607.2226,298.9636363636364L608.6522,286.93636363636364L609.7244000000001,295.5272727272727L610.0817999999999,345.3545454545455L611.154,326.45454545454544L611.5114000000001,237.1090909090909L611.8688,312.7090909090909L612.2262,204.46363636363637L612.941,321.3L613.6558,298.9636363636364L614.0132,319.58181818181816L616.8724000000001,297.24545454545455L618.6594,348.7909090909091L619.3742,338.4818181818182L620.089,230.23636363636362L620.4464,256.0090909090909L620.8038,192.43636363636364L621.1612,333.3272727272727L621.5186,286.93636363636364L622.2334000000001,214.77272727272728L622.5908000000001,352.22727272727275L623.663,230.23636363636362L624.3778000000001,329.8909090909091L624.7352000000001,120.27272727272731L625.0926,280.06363636363636L625.8074,335.04545454545456L626.8796,314.42727272727274L627.237,290.3727272727273L627.5944000000001,266.3181818181818L629.024,211.33636363636364L629.3814,204.46363636363637L630.4535999999999,223.36363636363635L631.1684,242.26363636363638L632.9554,297.24545454545455L635.4572000000001,151.20000000000002L636.8868,304.1181818181818L637.2442000000001,278.3454545454546L637.6016000000001,99.65454545454548L637.959,254.2909090909091L638.3164,242.26363636363638L639.3886000000001,250.85454545454547L639.7460000000001,266.3181818181818L641.5330000000001,317.8636363636364L644.0348,156.35454545454547L646.8940000000001,273.1909090909091L647.6088,34.363636363636374L648.3236,321.3L650.4680000000001,266.3181818181818L651.5402,331.6090909090909L655.4716,292.0909090909091L656.1864,247.4181818181818L657.2586,243.98181818181817L657.616,317.8636363636364L658.3308000000001,312.7090909090909L659.7604,256.0090909090909L660.1178000000001,139.17272727272726L660.4752,297.24545454545455L660.8326,134.0181818181818L661.9048,307.55454545454546L662.6196,242.26363636363638L662.977,261.1636363636364L663.3344000000001,326.45454545454544L665.1214,331.6090909090909L666.1936,51.54545454545456L668.6954000000001,223.36363636363635L669.0528,156.35454545454547L671.5545999999999,199.3090909090909L672.2694,233.67272727272726L672.9842000000001,259.44545454545454L673.3416000000001,264.6L673.699,109.96363636363634L674.0564,254.2909090909091L674.4138,56.69999999999999L675.8434,254.2909090909091L676.2008000000001,314.42727272727274L677.6304,268.03636363636366L677.9878,285.21818181818185L680.4896000000001,249.13636363636365L681.2044,226.79999999999998L682.6340000000001,309.27272727272725L683.3488,345.3545454545455L685.1358,316.1454545454545L686.2080000000001,228.51818181818183L686.9228,127.14545454545453L687.6376,305.8363636363636L689.0672000000001,53.26363636363635L691.2116000000001,264.6L691.9264000000001,109.96363636363634L692.2838,290.3727272727273L693.356,240.54545454545453L696.2152,204.46363636363637L697.2874,183.84545454545454L699.0744000000001,331.6090909090909L699.4318000000001,123.70909090909092L699.7891999999999,113.40000000000003L700.504,219.92727272727274L701.2188000000001,271.4727272727273L702.291,121.9909090909091L703.0058,347.07272727272726L703.7206,180.4090909090909L704.7928,207.9L705.1501999999999,135.73636363636365L705.5076,142.60909090909092L708.0094,269.75454545454545L708.3668,118.55454545454546L708.7242000000001,34.363636363636374L709.439,202.74545454545455L709.7964000000001,34.363636363636374L711.226,170.1L711.5834,156.35454545454547L712.2982000000001,206.1818181818182L712.6555999999999,185.5636363636364L713.3704,310.9909090909091L714.4426000000001,94.5L715.5148,312.7090909090909L716.2296000000001,92.78181818181821L716.587,187.28181818181818L718.0166,297.24545454545455L718.7314,199.3090909090909L720.161,82.47272727272724L720.5184,243.98181818181817L721.9480000000001,60.136363636363626L722.6628000000001,223.36363636363635L723.3776,352.22727272727275L723.7350000000001,285.21818181818185L724.0924,183.84545454545454L724.4498,237.1090909090909L724.8072000000001,254.2909090909091L725.1646000000001,319.58181818181816L725.8794,201.02727272727273L727.6664,194.15454545454546L728.0238,235.3909090909091L729.8108,316.1454545454545L730.5256,178.69090909090912L731.2404000000001,34.363636363636374L732.6700000000001,310.9909090909091L733.0274000000001,323.0181818181818L733.7422,183.84545454545454L734.4570000000001,42.95454545454544L735.8866,305.8363636363636L736.244,223.36363636363635L736.9588,355.6636363636364L737.3162,280.06363636363636L738.0310000000001,199.3090909090909L738.7457999999999,271.4727272727273L739.1032,34.363636363636374L739.818,34.363636363636374L740.5328000000001,323.0181818181818L740.8901999999999,207.9L742.6772,170.1L743.0346,104.80909090909091L744.4642,37.80000000000001L747.3234,34.363636363636374L749.1104,197.5909090909091L750.1826,34.363636363636374L750.8974000000001,166.66363636363636L751.9696,34.363636363636374L752.327,209.61818181818182L753.3992000000001,34.363636363636374L754.114,87.62727272727273L754.8288,130.5818181818182L755.1862000000001,34.363636363636374L756.2584,34.363636363636374L756.6158,163.22727272727272L756.9732,87.62727272727273L758.4028000000001,152.9181818181818L759.1176,201.02727272727273L759.8324,197.5909090909091L760.1898,121.9909090909091L763.0490000000001,34.363636363636374L763.4064,84.19090909090909L763.7638000000001,207.9L766.9804,63.57272727272726L768.0526000000001,34.363636363636374L769.1248,97.93636363636364L769.4822,34.363636363636374L769.8396,190.71818181818182L770.9118,199.3090909090909L771.2692000000001,158.0727272727273L771.6266,139.17272727272726L772.3414000000001,34.363636363636374L773.0562,158.0727272727273L773.4136000000001,34.363636363636374L773.7710000000001,121.9909090909091L774.4858,34.363636363636374L774.8432,295.5272727272727L776.9876,149.4818181818182L777.7024000000001,274.90909090909093L779.8468000000001,190.71818181818182L780.2042,163.22727272727272L782.3486,34.363636363636374L782.706,34.363636363636374L783.0634,34.363636363636374L783.4208000000001,49.827272727272714L784.1356,195.87272727272727L784.8504,56.69999999999999L785.2078,113.40000000000003L785.5652,103.09090909090907L785.9226,192.43636363636364L786.28,56.69999999999999L786.6374000000001,266.3181818181818L787.7096,152.9181818181818L788.067,34.363636363636374L790.2114,115.11818181818182L790.5688,91.06363636363636L790.9262000000001,252.57272727272726L791.2836,34.363636363636374L795.215,341.91818181818184L795.5724,274.90909090909093L797.002,34.363636363636374L797.3594,34.363636363636374L798.0742,37.80000000000001L798.789,34.363636363636374L799.8612,175.25454545454545L800.9334,36.081818181818164L801.6482000000001,34.363636363636374L802.0056000000001,65.29090909090911L802.7204,209.61818181818182L803.7926000000001,127.14545454545453L804.1500000000001,34.363636363636374L804.8648000000001,34.363636363636374L805.2222,111.68181818181819L805.5796,168.38181818181818L807.0092000000001,161.5090909090909L807.3666000000001,195.87272727272727L808.0814,140.89090909090908L808.4388,109.96363636363634L808.7962,166.66363636363636L809.1536000000001,34.363636363636374L810.2258,89.34545454545452L810.5832,109.96363636363634L813.4424000000001,144.32727272727274L814.5146000000001,123.70909090909092L815.2294,34.363636363636374L815.9442,34.363636363636374L816.6590000000001,216.4909090909091L818.0886,139.17272727272726L818.8034000000001,34.363636363636374L819.1608,36.081818181818164L819.5182,82.47272727272724L820.2330000000001,51.54545454545456L822.3774000000001,34.363636363636374L823.0922,34.363636363636374L824.8792,34.363636363636374L826.3088000000001,104.80909090909091L827.0236,34.363636363636374L828.8106,256.0090909090909L830.2402000000001,54.9818181818182L830.5975999999999,240.54545454545453L832.0272000000001,34.363636363636374L832.3846,202.74545454545455L833.4568,34.363636363636374L836.316,68.72727272727269L836.6734,127.14545454545453L838.4604,34.363636363636374L838.8178,96.21818181818179L839.5326000000001,65.29090909090911L840.2474,34.363636363636374L840.6048000000001,247.4181818181818L840.9622,34.363636363636374L841.3196,53.26363636363635L841.677,34.363636363636374L844.1788,34.363636363636374L844.5362,254.2909090909091L845.9658000000001,34.363636363636374L846.6806,56.69999999999999L847.7528,34.363636363636374L848.1102000000001,51.54545454545456L853.4712000000001,34.363636363636374L854.9008,92.78181818181821L857.0452,34.363636363636374L857.4026,34.363636363636374L857.7600000000001,34.363636363636374L858.4748,34.363636363636374L860.2618,34.363636363636374L860.6192,34.363636363636374L862.0488000000001,199.3090909090909L862.4062,34.363636363636374L866.3376000000001,34.363636363636374L866.695,91.06363636363636L867.4098000000001,34.363636363636374L868.4820000000001,34.363636363636374L869.9116,34.363636363636374L870.269,34.363636363636374L870.9838000000001,34.363636363636374L871.6985999999999,352.22727272727275L872.4134,34.363636363636374L872.7708,34.363636363636374L873.4856,34.363636363636374L873.843,34.363636363636374L874.2004000000001,34.363636363636374L874.5578,34.363636363636374L874.9152,34.363636363636374L877.7744,34.363636363636374L878.4892000000001,34.363636363636374L879.204,34.363636363636374L879.5614,34.363636363636374L880.2762,195.87272727272727L880.991,61.85454545454547L881.3484,48.109090909090924L882.0632,34.363636363636374L882.4206,34.363636363636374L884.2076000000001,54.9818181818182L884.9224,34.363636363636374L886.352,34.363636363636374L887.0668000000001,41.23636363636365L887.4242,34.363636363636374L888.8538,41.23636363636365L889.2112000000001,34.363636363636374L889.5686000000001,34.363636363636374L890.9982,34.363636363636374L891.7130000000001,34.363636363636374L892.0704,34.363636363636374L892.4278,34.363636363636374L893.5000000000001,34.363636363636374L894.2148,197.5909090909091L894.5722000000001,41.23636363636365L895.6444000000001,56.69999999999999L896.0018,34.363636363636374L896.3592,34.363636363636374L897.0740000000001,34.363636363636374L899.5758,34.363636363636374L900.648,79.03636363636366L902.0776000000001,34.363636363636374L902.4350000000001,34.363636363636374L902.7924,34.363636363636374L903.5072,101.37272727272727L904.5794000000001,34.363636363636374L906.7238000000001,34.363636363636374L907.796,48.109090909090924L909.2256,120.27272727272731L911.37,34.363636363636374L914.2292000000001,94.5L914.9440000000001,34.363636363636374L915.3014000000001,34.363636363636374L916.0162,34.363636363636374L916.3736,34.363636363636374L916.731,34.363636363636374L918.518,53.26363636363635L919.9476000000001,34.363636363636374L920.305,118.55454545454546L920.6624,85.90909090909093L921.3772,34.363636363636374L921.7346000000001,134.0181818181818L922.092,34.363636363636374L923.1642,163.22727272727272L924.2364,37.80000000000001L925.6659999999999,34.363636363636374L926.3808,48.109090909090924L926.7382,75.59999999999997L928.5252,79.03636363636366L931.3844,149.4818181818182L932.0992,142.60909090909092L933.8862,51.54545454545456L934.9584,34.363636363636374L935.6732000000001,60.136363636363626L936.0306,182.12727272727273L937.1028,34.363636363636374L937.4602,218.20909090909092L937.8176000000001,127.14545454545453L939.9620000000001,182.12727272727273L940.6768,201.02727272727273L942.1064000000001,151.20000000000002L943.5360000000001,51.54545454545456L945.3230000000001,34.363636363636374L945.6804000000001,34.363636363636374L946.7526,147.76363636363635L947.11,34.363636363636374L947.8248000000001,34.363636363636374L951.3988,34.363636363636374L951.7562,80.75454545454545L953.1858000000001,37.80000000000001L953.5432000000001,34.363636363636374L953.9006,103.09090909090907L954.258,36.081818181818164L955.3302000000001,34.363636363636374L956.4024000000001,139.17272727272726L957.832,135.73636363636365L958.9042000000001,34.363636363636374L959.619,36.081818181818164L960.6912000000001,37.80000000000001L961.0486,60.136363636363626L961.7634,77.31818181818181L962.1208,34.363636363636374L962.8356000000001,34.363636363636374L963.193,125.42727272727271L963.5504,123.70909090909092L964.2652,34.363636363636374L965.3374,34.363636363636374L965.6948,34.363636363636374L966.4096000000001,34.363636363636374L967.1244,34.363636363636374L968.554,34.363636363636374L969.2688,80.75454545454545L969.9836,230.23636363636362L971.4132000000001,34.363636363636374L972.128,65.29090909090911L973.2002,34.363636363636374L973.5576000000001,65.29090909090911L973.9150000000001,41.23636363636365L975.7020000000001,34.363636363636374L976.0594,34.363636363636374L976.7742000000001,34.363636363636374L977.489,39.5181818181818L977.8464000000001,34.363636363636374L979.2760000000001,34.363636363636374L981.0630000000001,34.363636363636374L982.4926,34.363636363636374L984.6370000000001,94.5L986.0666,34.363636363636374L986.7814000000001,103.09090909090907L987.4962,34.363636363636374L988.5684000000001,101.37272727272727L989.2832,115.11818181818182L989.6406000000001,34.363636363636374L990.3554,68.72727272727269L991.0702,34.363636363636374" style="fill: none;" fill="none"></path></g></g></g></g></g></g><g transform="translate(40, 378)" clip-path="url(#clip_1)"><clipPath id="clip_1"><rect width="1072" height="22"></rect></clipPath><g><g><line x1="0" y1="0" x2="0" y2="5" style="visibility: inherit;" fill="rgb(0, 0, 0)" stroke="rgb(204, 204, 204)" stroke-width="1px"></line><line x1="71.48" y1="0" x2="71.48" y2="5" style="visibility: inherit;" fill="rgb(0, 0, 0)" stroke="rgb(204, 204, 204)" stroke-width="1px"></line><line x1="142.96" y1="0" x2="142.96" y2="5" style="visibility: inherit;" fill="rgb(0, 0, 0)" stroke="rgb(204, 204, 204)" stroke-width="1px"></line><line x1="214.44000000000003" y1="0" x2="214.44000000000003" y2="5" style="visibility: inherit;" fill="rgb(0, 0, 0)" stroke="rgb(204, 204, 204)" stroke-width="1px"></line><line x1="285.92" y1="0" x2="285.92" y2="5" style="visibility: inherit;" fill="rgb(0, 0, 0)" stroke="rgb(204, 204, 204)" stroke-width="1px"></line><line x1="357.4" y1="0" x2="357.4" y2="5" style="visibility: inherit;" fill="rgb(0, 0, 0)" stroke="rgb(204, 204, 204)" stroke-width="1px"></line><line x1="428.88000000000005" y1="0" x2="428.88000000000005" y2="5" style="visibility: inherit;" fill="rgb(0, 0, 0)" stroke="rgb(204, 204, 204)" stroke-width="1px"></line><line x1="500.36" y1="0" x2="500.36" y2="5" style="visibility: inherit;" fill="rgb(0, 0, 0)" stroke="rgb(204, 204, 204)" stroke-width="1px"></line><line x1="571.84" y1="0" x2="571.84" y2="5" style="visibility: inherit;" fill="rgb(0, 0, 0)" stroke="rgb(204, 204, 204)" stroke-width="1px"></line><line x1="643.32" y1="0" x2="643.32" y2="5" style="visibility: inherit;" fill="rgb(0, 0, 0)" stroke="rgb(204, 204, 204)" stroke-width="1px"></line><line x1="714.8" y1="0" x2="714.8" y2="5" style="visibility: inherit;" fill="rgb(0, 0, 0)" stroke="rgb(204, 204, 204)" stroke-width="1px"></line><line x1="786.28" y1="0" x2="786.28" y2="5" style="visibility: inherit;" fill="rgb(0, 0, 0)" stroke="rgb(204, 204, 204)" stroke-width="1px"></line><line x1="857.7600000000001" y1="0" x2="857.7600000000001" y2="5" style="visibility: inherit;" fill="rgb(0, 0, 0)" stroke="rgb(204, 204, 204)" stroke-width="1px"></line><line x1="929.2400000000001" y1="0" x2="929.2400000000001" y2="5" style="visibility: inherit;" fill="rgb(0, 0, 0)" stroke="rgb(204, 204, 204)" stroke-width="1px"></line><line x1="1000.72" y1="0" x2="1000.72" y2="5" style="visibility: inherit;" fill="rgb(0, 0, 0)" stroke="rgb(204, 204, 204)" stroke-width="1px"></line><line x1="1072.2" y1="0" x2="1072.2" y2="5" style="visibility: inherit;" fill="rgb(0, 0, 0)" stroke="rgb(204, 204, 204)" stroke-width="1px"></line></g><g transform="translate(0, 8)"><text x="0" y="0" dx="0em" dy="0.95em" style="text-anchor: middle; visibility: hidden; font-family: &quot;Helvetica Neue&quot;, sans-serif; font-size: 12px; font-weight: 200;" fill="rgb(50, 49, 63)" stroke="none" stroke-width="1px">-200</text><text x="71.48" y="0" dx="0em" dy="0.95em" style="text-anchor: middle; visibility: inherit; font-family: &quot;Helvetica Neue&quot;, sans-serif; font-size: 12px; font-weight: 200;" fill="rgb(50, 49, 63)" stroke="none" stroke-width="1px">0</text><text x="142.96" y="0" dx="0em" dy="0.95em" style="text-anchor: middle; visibility: inherit; font-family: &quot;Helvetica Neue&quot;, sans-serif; font-size: 12px; font-weight: 200;" fill="rgb(50, 49, 63)" stroke="none" stroke-width="1px">200</text><text x="214.44000000000003" y="0" dx="0em" dy="0.95em" style="text-anchor: middle; visibility: inherit; font-family: &quot;Helvetica Neue&quot;, sans-serif; font-size: 12px; font-weight: 200;" fill="rgb(50, 49, 63)" stroke="none" stroke-width="1px">400</text><text x="285.92" y="0" dx="0em" dy="0.95em" style="text-anchor: middle; visibility: inherit; font-family: &quot;Helvetica Neue&quot;, sans-serif; font-size: 12px; font-weight: 200;" fill="rgb(50, 49, 63)" stroke="none" stroke-width="1px">600</text><text x="357.4" y="0" dx="0em" dy="0.95em" style="text-anchor: middle; visibility: inherit; font-family: &quot;Helvetica Neue&quot;, sans-serif; font-size: 12px; font-weight: 200;" fill="rgb(50, 49, 63)" stroke="none" stroke-width="1px">800</text><text x="428.88000000000005" y="0" dx="0em" dy="0.95em" style="text-anchor: middle; visibility: inherit; font-family: &quot;Helvetica Neue&quot;, sans-serif; font-size: 12px; font-weight: 200;" fill="rgb(50, 49, 63)" stroke="none" stroke-width="1px">1k</text><text x="500.36" y="0" dx="0em" dy="0.95em" style="text-anchor: middle; visibility: inherit; font-family: &quot;Helvetica Neue&quot;, sans-serif; font-size: 12px; font-weight: 200;" fill="rgb(50, 49, 63)" stroke="none" stroke-width="1px">1.2k</text><text x="571.84" y="0" dx="0em" dy="0.95em" style="text-anchor: middle; visibility: inherit; font-family: &quot;Helvetica Neue&quot;, sans-serif; font-size: 12px; font-weight: 200;" fill="rgb(50, 49, 63)" stroke="none" stroke-width="1px">1.4k</text><text x="643.32" y="0" dx="0em" dy="0.95em" style="text-anchor: middle; visibility: inherit; font-family: &quot;Helvetica Neue&quot;, sans-serif; font-size: 12px; font-weight: 200;" fill="rgb(50, 49, 63)" stroke="none" stroke-width="1px">1.6k</text><text x="714.8" y="0" dx="0em" dy="0.95em" style="text-anchor: middle; visibility: inherit; font-family: &quot;Helvetica Neue&quot;, sans-serif; font-size: 12px; font-weight: 200;" fill="rgb(50, 49, 63)" stroke="none" stroke-width="1px">1.8k</text><text x="786.28" y="0" dx="0em" dy="0.95em" style="text-anchor: middle; visibility: inherit; font-family: &quot;Helvetica Neue&quot;, sans-serif; font-size: 12px; font-weight: 200;" fill="rgb(50, 49, 63)" stroke="none" stroke-width="1px">2k</text><text x="857.7600000000001" y="0" dx="0em" dy="0.95em" style="text-anchor: middle; visibility: inherit; font-family: &quot;Helvetica Neue&quot;, sans-serif; font-size: 12px; font-weight: 200;" fill="rgb(50, 49, 63)" stroke="none" stroke-width="1px">2.2k</text><text x="929.2400000000001" y="0" dx="0em" dy="0.95em" style="text-anchor: middle; visibility: inherit; font-family: &quot;Helvetica Neue&quot;, sans-serif; font-size: 12px; font-weight: 200;" fill="rgb(50, 49, 63)" stroke="none" stroke-width="1px">2.4k</text><text x="1000.72" y="0" dx="0em" dy="0.95em" style="text-anchor: middle; visibility: inherit; font-family: &quot;Helvetica Neue&quot;, sans-serif; font-size: 12px; font-weight: 200;" fill="rgb(50, 49, 63)" stroke="none" stroke-width="1px">2.6k</text><text x="1072.2" y="0" dx="0em" dy="0.95em" style="text-anchor: middle; visibility: hidden; font-family: &quot;Helvetica Neue&quot;, sans-serif; font-size: 12px; font-weight: 200;" fill="rgb(50, 49, 63)" stroke="none" stroke-width="1px">2.8k</text></g><line x1="0" y1="0" x2="1072.2" y2="0" fill="rgb(0, 0, 0)" stroke="rgb(204, 204, 204)" stroke-width="1px"></line></g></g></g></g></svg>