<svg viewBox="0 0 1112.2000732421875 400" xmlns="http://www.w3.org/2000/svg"><g><g><g><g><g><line x1="40" y1="378" x2="35" y2="378" style="visibility: inherit;" fill="rgb(0, 0, 0)" stroke="rgb(204, 204, 204)" stroke-width="1px"></line><line x1="40" y1="343.6363636363636" x2="35" y2="343.6363636363636" style="visibility: inherit;" fill="rgb(0, 0, 0)" stroke="rgb(204, 204, 204)" stroke-width="1px"></line><line x1="40" y1="309.27272727272725" x2="35" y2="309.27272727272725" style="visibility: inherit;" fill="rgb(0, 0, 0)" stroke="rgb(204, 204, 204)" stroke-width="1px"></line><line x1="40" y1="274.90909090909093" x2="35" y2="274.90909090909093" style="visibility: inherit;" fill="rgb(0, 0, 0)" stroke="rgb(204, 204, 204)" stroke-width="1px"></line><line x1="40" y1="240.54545454545453" x2="35" y2="240.54545454545453" style="visibility: inherit;" fill="rgb(0, 0, 0)" stroke="rgb(204, 204, 204)" stroke-width="1px"></line><line x1="40" y1="206.1818181818182" x2="35" y2="206.1818181818182" style="visibility: inherit;" fill="rgb(0, 0, 0)" stroke="rgb(204, 204, 204)" stroke-width="1px"></line><line x1="40" y1="171.81818181818184" x2="35" y2="171.81818181818184" style="visibility: inherit;" fill="rgb(0, 0, 0)" stroke="rgb(204, 204, 204)" stroke-width="1px"></line><line x1="40" y1="137.45454545454547" x2="35" y2="137.45454545454547" style="visibility: inherit;" fill="rgb(0, 0, 0)" stroke="rgb(204, 204, 204)" stroke-width="1px"></line><line x1="40" y1="103.09090909090907" x2="35" y2="103.09090909090907" style="visibility: inherit;" fill="rgb(0, 0, 0)" stroke="rgb(204, 204, 204)" stroke-width="1px"></line><line x1="40" y1="68.72727272727269" x2="35" y2="68.72727272727269" style="visibility: inherit;" fill="rgb(0, 0, 0)" stroke="rgb(204, 204, 204)" stroke-width="1px"></line><line x1="40" y1="34.363636363636374" x2="35" y2="34.363636363636374" style="visibility: inherit;" fill="rgb(0, 0, 0)" stroke="rgb(204, 204, 204)" stroke-width="1px"></line><line x1="40" y1="0" x2="35" y2="0" style="visibility: inherit;" fill="rgb(0, 0, 0)" stroke="rgb(204, 204, 204)" stroke-width="1px"></line></g><g transform="translate(30, 0)"><text x="0" y="378" dx="0em" dy="0.3em" style="text-anchor: end; visibility: hidden; font-family: &quot;Helvetica Neue&quot;, sans-serif; font-size: 12px; font-weight: 200;" fill="rgb(50, 49, 63)" stroke="none" stroke-width="1px">0</text><text x="0" y="343.6363636363636" dx="0em" dy="0.3em" style="text-anchor: end; visibility: inherit; font-family: &quot;Helvetica Neue&quot;, sans-serif; font-size: 12px; font-weight: 200;" fill="rgb(50, 49, 63)" stroke="none" stroke-width="1px">20</text><text x="0" y="309.27272727272725" dx="0em" dy="0.3em" style="text-anchor: end; visibility: inherit; font-family: &quot;Helvetica Neue&quot;, sans-serif; font-size: 12px; font-weight: 200;" fill="rgb(50, 49, 63)" stroke="none" stroke-width="1px">40</text><text x="0" y="274.90909090909093" dx="0em" dy="0.3em" style="text-anchor: end; visibility: inherit; font-family: &quot;Helvetica Neue&quot;, sans-serif; font-size: 12px; font-weight: 200;" fill="rgb(50, 49, 63)" stroke="none" stroke-width="1px">60</text><text x="0" y="240.54545454545453" dx="0em" dy="0.3em" style="text-anchor: end; visibility: inherit; font-family: &quot;Helvetica Neue&quot;, sans-serif; font-size: 12px; font-weight: 200;" fill="rgb(50, 49, 63)" stroke="none" stroke-width="1px">80</text><text x="0" y="206.1818181818182" dx="0em" dy="0.3em" style="text-anchor: end; visibility: inherit; font-family: &quot;Helvetica Neue&quot;, sans-serif; font-size: 12px; font-weight: 200;" fill="rgb(50, 49, 63)" stroke="none" stroke-width="1px">100</text><text x="0" y="171.81818181818184" dx="0em" dy="0.3em" style="text-anchor: end; visibility: inherit; font-family: &quot;Helvetica Neue&quot;, sans-serif; font-size: 12px; font-weight: 200;" fill="rgb(50, 49, 63)" stroke="none" stroke-width="1px">120</text><text x="0" y="137.45454545454547" dx="0em" dy="0.3em" style="text-anchor: end; visibility: inherit; font-family: &quot;Helvetica Neue&quot;, sans-serif; font-size: 12px; font-weight: 200;" fill="rgb(50, 49, 63)" stroke="none" stroke-width="1px">140</text><text x="0" y="103.09090909090907" dx="0em" dy="0.3em" style="text-anchor: end; visibility: inherit; font-family: &quot;Helvetica Neue&quot;, sans-serif; font-size: 12px; font-weight: 200;" fill="rgb(50, 49, 63)" stroke="none" stroke-width="1px">160</text><text x="0" y="68.72727272727269" dx="0em" dy="0.3em" style="text-anchor: end; visibility: inherit; font-family: &quot;Helvetica Neue&quot;, sans-serif; font-size: 12px; font-weight: 200;" fill="rgb(50, 49, 63)" stroke="none" stroke-width="1px">180</text><text x="0" y="34.363636363636374" dx="0em" dy="0.3em" style="text-anchor: end; visibility: inherit; font-family: &quot;Helvetica Neue&quot;, sans-serif; font-size: 12px; font-weight: 200;" fill="rgb(50, 49, 63)" stroke="none" stroke-width="1px">200</text><text x="0" y="0" dx="0em" dy="0.3em" style="text-anchor: end; visibility: hidden; font-family: &quot;Helvetica Neue&quot;, sans-serif; font-size: 12px; font-weight: 200;" fill="rgb(50, 49, 63)" stroke="none" stroke-width="1px">220</text></g><line x1="40" y1="0" x2="40" y2="378" fill="rgb(0, 0, 0)" stroke="rgb(204, 204, 204)" stroke-width="1px"></line></g></g><g transform="translate(40, 0)" clip-path="url(#clip_0)"><clipPath id="clip_0"><rect width="1072" height="378"></rect></clipPath><g><g><g><line x1="0" y1="0" x2="0" y2="378" fill="rgb(0, 0, 0)" stroke="rgb(60, 60, 60)" stroke-width="1px" opacity="0.25"></line><line x1="107.22000000000001" y1="0" x2="107.22000000000001" y2="378" fill="rgb(0, 0, 0)" stroke="rgb(60, 60, 60)" stroke-width="1px" opacity="0.25"></line><line x1="214.44000000000003" y1="0" x2="214.44000000000003" y2="378" fill="rgb(0, 0, 0)" stroke="rgb(60, 60, 60)" stroke-width="1px" opacity="0.25"></line><line x1="321.66" y1="0" x2="321.66" y2="378" fill="rgb(0, 0, 0)" stroke="rgb(60, 60, 60)" stroke-width="1px" opacity="0.25"></line><line x1="428.88000000000005" y1="0" x2="428.88000000000005" y2="378" fill="rgb(0, 0, 0)" stroke="rgb(60, 60, 60)" stroke-width="1px" opacity="0.25"></line><line x1="536.1" y1="0" x2="536.1" y2="378" fill="rgb(0, 0, 0)" stroke="rgb(60, 60, 60)" stroke-width="1px" opacity="0.25"></line><line x1="643.32" y1="0" x2="643.32" y2="378" fill="rgb(0, 0, 0)" stroke="rgb(60, 60, 60)" stroke-width="1px" opacity="0.25"></line><line x1="750.54" y1="0" x2="750.54" y2="378" fill="rgb(0, 0, 0)" stroke="rgb(60, 60, 60)" stroke-width="1px" opacity="0.25"></line><line x1="857.7600000000001" y1="0" x2="857.7600000000001" y2="378" fill="rgb(0, 0, 0)" stroke="rgb(60, 60, 60)" stroke-width="1px" opacity="0.25"></line><line x1="964.98" y1="0" x2="964.98" y2="378" fill="rgb(0, 0, 0)" stroke="rgb(60, 60, 60)" stroke-width="1px" opacity="0.25"></line><line x1="1072.2" y1="0" x2="1072.2" y2="378" fill="rgb(0, 0, 0)" stroke="rgb(60, 60, 60)" stroke-width="1px" opacity="0.25"></line></g><g><line x1="0" y1="378" x2="1072.2" y2="378" fill="rgb(0, 0, 0)" stroke="rgb(60, 60, 60)" stroke-width="1px" opacity="0.25"></line><line x1="0" y1="343.6363636363636" x2="1072.2" y2="343.6363636363636" fill="rgb(0, 0, 0)" stroke="rgb(60, 60, 60)" stroke-width="1px" opacity="0.25"></line><line x1="0" y1="309.27272727272725" x2="1072.2" y2="309.27272727272725" fill="rgb(0, 0, 0)" stroke="rgb(60, 60, 60)" stroke-width="1px" opacity="0.25"></line><line x1="0" y1="274.90909090909093" x2="1072.2" y2="274.90909090909093" fill="rgb(0, 0, 0)" stroke="rgb(60, 60, 60)" stroke-width="1px" opacity="0.25"></line><line x1="0" y1="240.54545454545453" x2="1072.2" y2="240.54545454545453" fill="rgb(0, 0, 0)" stroke="rgb(60, 60, 60)" stroke-width="1px" opacity="0.25"></line><line x1="0" y1="206.1818181818182" x2="1072.2" y2="206.1818181818182" fill="rgb(0, 0, 0)" stroke="rgb(60, 60, 60)" stroke-width="1px" opacity="0.25"></line><line x1="0" y1="171.81818181818184" x2="1072.2" y2="171.81818181818184" fill="rgb(0, 0, 0)" stroke="rgb(60, 60, 60)" stroke-width="1px" opacity="0.25"></line><line x1="0" y1="137.45454545454547" x2="1072.2" y2="137.45454545454547" fill="rgb(0, 0, 0)" stroke="rgb(60, 60, 60)" stroke-width="1px" opacity="0.25"></line><line x1="0" y1="103.09090909090907" x2="1072.2" y2="103.09090909090907" fill="rgb(0, 0, 0)" stroke="rgb(60, 60, 60)" stroke-width="1px" opacity="0.25"></line><line x1="0" y1="68.72727272727269" x2="1072.2" y2="68.72727272727269" fill="rgb(0, 0, 0)" stroke="rgb(60, 60, 60)" stroke-width="1px" opacity="0.25"></line><line x1="0" y1="34.363636363636374" x2="1072.2" y2="34.363636363636374" fill="rgb(0, 0, 0)" stroke="rgb(60, 60, 60)" stroke-width="1px" opacity="0.25"></line><line x1="0" y1="0" x2="1072.2" y2="0" fill="rgb(0, 0, 0)" stroke="rgb(60, 60, 60)" stroke-width="1px" opacity="0.25"></line></g></g></g><g><g><line x1="0" y1="378" x2="1072.2" y2="378" fill="rgb(0, 0, 0)" stroke="rgb(153, 153, 153)" stroke-width="1.5px"></line></g></g><g><g><line x1="107.22000000000001" y1="0" x2="107.22000000000001" y2="378" fill="rgb(0, 0, 0)" stroke="rgb(153, 153, 153)" stroke-width="1.5px"></line></g></g><g><g><g><g><g><path stroke="rgb(255, 112, 67)" stroke-width="2px" d="M112.581,352.22727272727275L117.94200000000001,325.3806818181818L123.30300000000001,343.461038961039L128.664,344.3312165775401L134.025,351.48205160557694L139.38600000000002,320.0748034859877L144.747,329.06378888040246L150.10800000000003,303.53679050650646L155.469,317.65710178108174L160.83,332.95219921946824L166.191,344.1391782896757L171.55200000000002,346.00392976824867L176.913,331.98040580175757L182.27400000000003,332.51957508746744L187.635,303.27617706401367L192.996,326.2994740908154L198.357,327.73629129600806L203.71800000000002,313.4766902095L209.079,323.4793509203003L214.44000000000003,320.5456851108919L219.801,328.40758353261276L225.162,303.571495950024L230.523,305.1647283340702L235.88400000000001,326.051663243432L241.245,328.96191531089875L246.60600000000002,339.6426219513278L251.96699999999998,293.81825354272416L257.328,304.8109588761913L262.689,326.5265833269785L268.05,325.12322241321334L273.411,309.8484768763647L278.77200000000005,304.8072675427879L284.13300000000004,315.52799740124505L289.494,262.85497874978466L294.855,288.29480586901764L300.21600000000007,247.8896103773815L305.577,219.52285695996775L310.938,265.0446234359208L316.299,202.3249557400002L321.66,168.81679158102628L327.021,143.90098401954117L332.382,171.56240860685438L337.743,141.4247178826835L343.10400000000004,154.26937618638075L348.46500000000003,107.68162570698593L353.826,151.89261179058522L359.187,118.62647616401546L364.54800000000006,210.69224933683998L369.909,141.53534960117233L375.27,183.20120976104016L380.631,243.2516349478244L385.992,289.5909809688295L391.353,221.17640676299644L396.714,147.82584405772104L402.07500000000005,135.4300518891703L407.43600000000004,121.80712204258793L412.797,88.20427322554514L418.158,81.10074575350791L423.51900000000006,68.59135654301281L428.88000000000005,56.27481392580711L434.24100000000004,88.74670653730334L439.602,68.36802392238167L444.963,73.32263253524724L450.324,79.04448861205742L455.685,62.54669316723448L461.046,52.648015900340624L466.40700000000004,64.57790044929533L471.76800000000003,53.866740269577235L477.129,47.44004416174636L482.49,43.58402649704783L487.85100000000006,41.27041589822869L493.21200000000005,39.88224953893723L498.57300000000004,39.0493497233623L503.93399999999997,38.54960983401742L509.295,38.249765900410466L514.656,38.06985954024634L520.017,40.711006633238696L525.378,39.5466039799432L530.739,38.847962387965936L536.1,38.428777432779555L541.461,38.17726645966775L546.822,38.026359875800665L552.183,37.935815925480426L557.5440000000001,37.88148955528828L562.9050000000001,37.84889373317304L568.2660000000001,37.82933623990385L573.6270000000001,37.817601743942305L578.988,37.810561046365365L584.349,103.09724571872829L589.71,76.97834743123695L595.071,61.30700845874219L600.4320000000001,51.90420507524533L605.793,46.26252304514725L611.154,42.87751382708831L616.515,40.846508296253035L621.876,39.627904977751825L627.237,38.89674298665108L632.598,38.45804579199063L637.959,38.19482747519436L643.32,38.036896485116586L648.681,37.94213789106999L654.042,37.88528273464203L659.403,37.8511696407852L664.764,37.83070178447116L670.125,37.81842107068263L675.486,37.81105264240961L680.8470000000001,37.80663158544576L686.2080000000001,37.80397895126748L691.5690000000001,37.80238737076053L696.9300000000001,37.80143242245629L702.291,37.800859453473834L707.652,37.800515672084316L713.013,37.800309403250594L718.374,37.80018564195035L723.7350000000001,37.80011138517017L729.0960000000001,37.80006683110207L734.4570000000001,37.80004009866127L739.818,37.800024059196744L745.179,37.800014435517994L750.54,37.80000866131081L755.901,37.80000519678646L761.262,37.80000311807186L766.623,37.80000187084312L771.984,37.800001122505876L777.345,37.80000067350352L782.706,37.80000040410215L788.067,37.800000242461294L793.428,37.80000014547676L798.789,37.80000008728604L804.1500000000001,37.80000005237167L809.5110000000001,37.800000031423L814.8720000000001,37.80000001885378L820.2330000000001,37.80000001131236L825.594,37.8000000067874L830.955,37.80000000407239L836.316,37.800000002443426L841.677,37.80000000146612L847.0380000000001,37.80000000087972L852.3990000000001,37.8000000005278L857.7600000000001,37.800000000316686L863.1210000000001,37.80000000019004L868.4820000000001,37.80000000011398L873.843,37.80000000006834L879.204,37.80000000004105L884.5649999999999,37.800000000024625L889.926,37.80000000001479L895.287,37.80000000000888L900.648,37.800000000005355L906.009,37.80000000000325L911.37,37.800000000001944L916.731,37.80000000000115L922.092,37.80000000000064L927.453,37.80000000000041L932.8140000000001,37.80000000000024L938.1750000000001,37.80000000000018L943.5360000000001,37.800000000000125L948.897,37.800000000000125L954.258,37.800000000000125L959.619,37.800000000000125L964.98,37.800000000000125L970.3410000000001,37.800000000000125L975.7020000000001,37.800000000000125L981.0630000000001,37.800000000000125L986.4240000000001,37.800000000000125L991.7850000000001,37.800000000000125L997.1460000000001,37.800000000000125L1002.5070000000001,37.800000000000125" style="fill: none;" fill="none"></path></g></g></g></g><g opacity="0.2"><g><g><g><path stroke="rgb(255, 112, 67)" stroke-width="2px" d="M112.581,352.22727272727275L117.94200000000001,309.27272727272725L123.30300000000001,360.8181818181818L128.664,345.3545454545455L134.025,360.8181818181818L139.38600000000002,276.6272727272727L144.747,341.91818181818184L150.10800000000003,266.3181818181818L155.469,338.4818181818182L160.83,355.6636363636364L166.191,360.8181818181818L171.55200000000002,348.7909090909091L176.913,310.9909090909091L182.27400000000003,333.3272727272727L187.635,259.44545454545454L192.996,360.8181818181818L198.357,329.8909090909091L203.71800000000002,292.0909090909091L209.079,338.4818181818182L214.44000000000003,316.1454545454545L219.801,340.2L225.162,266.3181818181818L230.523,307.55454545454546L235.88400000000001,357.3818181818182L241.245,333.3272727272727L246.60600000000002,355.6636363636364L251.96699999999998,225.0818181818182L257.328,321.3L262.689,359.1L268.05,323.0181818181818L273.411,286.93636363636364L278.77200000000005,297.24545454545455L284.13300000000004,331.6090909090909L289.494,183.84545454545454L294.855,326.45454545454544L300.21600000000007,187.28181818181818L305.577,176.97272727272727L310.938,333.3272727272727L316.299,108.24545454545455L321.66,118.55454545454546L327.021,106.52727272727276L332.382,213.05454545454546L337.743,96.21818181818179L343.10400000000004,173.53636363636363L348.46500000000003,37.80000000000001L353.826,218.20909090909092L359.187,68.72727272727269L364.54800000000006,348.7909090909091L369.909,37.80000000000001L375.27,245.70000000000002L380.631,333.3272727272727L385.992,359.1L391.353,118.55454545454546L396.714,37.80000000000001L402.07500000000005,116.83636363636361L407.43600000000004,101.37272727272727L412.797,37.80000000000001L418.158,70.44545454545454L423.51900000000006,49.827272727272714L428.88000000000005,37.80000000000001L434.24100000000004,137.45454545454547L439.602,37.80000000000001L444.963,80.75454545454545L450.324,87.62727272727273L455.685,37.80000000000001L461.046,37.80000000000001L466.40700000000004,82.47272727272724L471.76800000000003,37.80000000000001L477.129,37.80000000000001L482.49,37.80000000000001L487.85100000000006,37.80000000000001L493.21200000000005,37.80000000000001L498.57300000000004,37.80000000000001L503.93399999999997,37.80000000000001L509.295,37.80000000000001L514.656,37.80000000000001L520.017,44.672727272727286L525.378,37.80000000000001L530.739,37.80000000000001L536.1,37.80000000000001L541.461,37.80000000000001L546.822,37.80000000000001L552.183,37.80000000000001L557.5440000000001,37.80000000000001L562.9050000000001,37.80000000000001L568.2660000000001,37.80000000000001L573.6270000000001,37.80000000000001L578.988,37.80000000000001L584.349,201.02727272727273L589.71,37.80000000000001L595.071,37.80000000000001L600.4320000000001,37.80000000000001L605.793,37.80000000000001L611.154,37.80000000000001L616.515,37.80000000000001L621.876,37.80000000000001L627.237,37.80000000000001L632.598,37.80000000000001L637.959,37.80000000000001L643.32,37.80000000000001L648.681,37.80000000000001L654.042,37.80000000000001L659.403,37.80000000000001L664.764,37.80000000000001L670.125,37.80000000000001L675.486,37.80000000000001L680.8470000000001,37.80000000000001L686.2080000000001,37.80000000000001L691.5690000000001,37.80000000000001L696.9300000000001,37.80000000000001L702.291,37.80000000000001L707.652,37.80000000000001L713.013,37.80000000000001L718.374,37.80000000000001L723.7350000000001,37.80000000000001L729.0960000000001,37.80000000000001L734.4570000000001,37.80000000000001L739.818,37.80000000000001L745.179,37.80000000000001L750.54,37.80000000000001L755.901,37.80000000000001L761.262,37.80000000000001L766.623,37.80000000000001L771.984,37.80000000000001L777.345,37.80000000000001L782.706,37.80000000000001L788.067,37.80000000000001L793.428,37.80000000000001L798.789,37.80000000000001L804.1500000000001,37.80000000000001L809.5110000000001,37.80000000000001L814.8720000000001,37.80000000000001L820.2330000000001,37.80000000000001L825.594,37.80000000000001L830.955,37.80000000000001L836.316,37.80000000000001L841.677,37.80000000000001L847.0380000000001,37.80000000000001L852.3990000000001,37.80000000000001L857.7600000000001,37.80000000000001L863.1210000000001,37.80000000000001L868.4820000000001,37.80000000000001L873.843,37.80000000000001L879.204,37.80000000000001L884.5649999999999,37.80000000000001L889.926,37.80000000000001L895.287,37.80000000000001L900.648,37.80000000000001L906.009,37.80000000000001L911.37,37.80000000000001L916.731,37.80000000000001L922.092,37.80000000000001L927.453,37.80000000000001L932.8140000000001,37.80000000000001L938.1750000000001,37.80000000000001L943.5360000000001,37.80000000000001L948.897,37.80000000000001L954.258,37.80000000000001L959.619,37.80000000000001L964.98,37.80000000000001L970.3410000000001,37.80000000000001L975.7020000000001,37.80000000000001L981.0630000000001,37.80000000000001L986.4240000000001,37.80000000000001L991.7850000000001,37.80000000000001L997.1460000000001,37.80000000000001L1002.5070000000001,37.80000000000001" style="fill: none;" fill="none"></path></g></g></g></g></g></g><g transform="translate(40, 378)" clip-path="url(#clip_1)"><clipPath id="clip_1"><rect width="1072" height="22"></rect></clipPath><g><g><line x1="0" y1="0" x2="0" y2="5" style="visibility: inherit;" fill="rgb(0, 0, 0)" stroke="rgb(204, 204, 204)" stroke-width="1px"></line><line x1="107.22000000000001" y1="0" x2="107.22000000000001" y2="5" style="visibility: inherit;" fill="rgb(0, 0, 0)" stroke="rgb(204, 204, 204)" stroke-width="1px"></line><line x1="214.44000000000003" y1="0" x2="214.44000000000003" y2="5" style="visibility: inherit;" fill="rgb(0, 0, 0)" stroke="rgb(204, 204, 204)" stroke-width="1px"></line><line x1="321.66" y1="0" x2="321.66" y2="5" style="visibility: inherit;" fill="rgb(0, 0, 0)" stroke="rgb(204, 204, 204)" stroke-width="1px"></line><line x1="428.88000000000005" y1="0" x2="428.88000000000005" y2="5" style="visibility: inherit;" fill="rgb(0, 0, 0)" stroke="rgb(204, 204, 204)" stroke-width="1px"></line><line x1="536.1" y1="0" x2="536.1" y2="5" style="visibility: inherit;" fill="rgb(0, 0, 0)" stroke="rgb(204, 204, 204)" stroke-width="1px"></line><line x1="643.32" y1="0" x2="643.32" y2="5" style="visibility: inherit;" fill="rgb(0, 0, 0)" stroke="rgb(204, 204, 204)" stroke-width="1px"></line><line x1="750.54" y1="0" x2="750.54" y2="5" style="visibility: inherit;" fill="rgb(0, 0, 0)" stroke="rgb(204, 204, 204)" stroke-width="1px"></line><line x1="857.7600000000001" y1="0" x2="857.7600000000001" y2="5" style="visibility: inherit;" fill="rgb(0, 0, 0)" stroke="rgb(204, 204, 204)" stroke-width="1px"></line><line x1="964.98" y1="0" x2="964.98" y2="5" style="visibility: inherit;" fill="rgb(0, 0, 0)" stroke="rgb(204, 204, 204)" stroke-width="1px"></line><line x1="1072.2" y1="0" x2="1072.2" y2="5" style="visibility: inherit;" fill="rgb(0, 0, 0)" stroke="rgb(204, 204, 204)" stroke-width="1px"></line></g><g transform="translate(0, 8)"><text x="0" y="0" dx="0em" dy="0.95em" style="text-anchor: middle; visibility: hidden; font-family: &quot;Helvetica Neue&quot;, sans-serif; font-size: 12px; font-weight: 200;" fill="rgb(50, 49, 63)" stroke="none" stroke-width="1px">-20</text><text x="107.22000000000001" y="0" dx="0em" dy="0.95em" style="text-anchor: middle; visibility: inherit; font-family: &quot;Helvetica Neue&quot;, sans-serif; font-size: 12px; font-weight: 200;" fill="rgb(50, 49, 63)" stroke="none" stroke-width="1px">0</text><text x="214.44000000000003" y="0" dx="0em" dy="0.95em" style="text-anchor: middle; visibility: inherit; font-family: &quot;Helvetica Neue&quot;, sans-serif; font-size: 12px; font-weight: 200;" fill="rgb(50, 49, 63)" stroke="none" stroke-width="1px">20</text><text x="321.66" y="0" dx="0em" dy="0.95em" style="text-anchor: middle; visibility: inherit; font-family: &quot;Helvetica Neue&quot;, sans-serif; font-size: 12px; font-weight: 200;" fill="rgb(50, 49, 63)" stroke="none" stroke-width="1px">40</text><text x="428.88000000000005" y="0" dx="0em" dy="0.95em" style="text-anchor: middle; visibility: inherit; font-family: &quot;Helvetica Neue&quot;, sans-serif; font-size: 12px; font-weight: 200;" fill="rgb(50, 49, 63)" stroke="none" stroke-width="1px">60</text><text x="536.1" y="0" dx="0em" dy="0.95em" style="text-anchor: middle; visibility: inherit; font-family: &quot;Helvetica Neue&quot;, sans-serif; font-size: 12px; font-weight: 200;" fill="rgb(50, 49, 63)" stroke="none" stroke-width="1px">80</text><text x="643.32" y="0" dx="0em" dy="0.95em" style="text-anchor: middle; visibility: inherit; font-family: &quot;Helvetica Neue&quot;, sans-serif; font-size: 12px; font-weight: 200;" fill="rgb(50, 49, 63)" stroke="none" stroke-width="1px">100</text><text x="750.54" y="0" dx="0em" dy="0.95em" style="text-anchor: middle; visibility: inherit; font-family: &quot;Helvetica Neue&quot;, sans-serif; font-size: 12px; font-weight: 200;" fill="rgb(50, 49, 63)" stroke="none" stroke-width="1px">120</text><text x="857.7600000000001" y="0" dx="0em" dy="0.95em" style="text-anchor: middle; visibility: inherit; font-family: &quot;Helvetica Neue&quot;, sans-serif; font-size: 12px; font-weight: 200;" fill="rgb(50, 49, 63)" stroke="none" stroke-width="1px">140</text><text x="964.98" y="0" dx="0em" dy="0.95em" style="text-anchor: middle; visibility: inherit; font-family: &quot;Helvetica Neue&quot;, sans-serif; font-size: 12px; font-weight: 200;" fill="rgb(50, 49, 63)" stroke="none" stroke-width="1px">160</text><text x="1072.2" y="0" dx="0em" dy="0.95em" style="text-anchor: middle; visibility: hidden; font-family: &quot;Helvetica Neue&quot;, sans-serif; font-size: 12px; font-weight: 200;" fill="rgb(50, 49, 63)" stroke="none" stroke-width="1px">180</text></g><line x1="0" y1="0" x2="1072.2" y2="0" fill="rgb(0, 0, 0)" stroke="rgb(204, 204, 204)" stroke-width="1px"></line></g></g></g></g></svg>